<svg width="209" height="249" viewBox="0 0 209 249" fill="none" xmlns="http://www.w3.org/2000/svg">
<path d="M95.5004 191.9L94.5004 197.1V199.1L96.9004 202.6V203.3L96.6003 204.2L97.5004 206.1L97.2004 208.5L95.6003 210.3L94.3004 214.5L90.5004 219.8L90.4004 226.8H89.4004L90.3004 228.7V229.6L88.1003 232.3L88.2004 233.4L89.7004 235.6L89.6003 236.5L85.9004 237.1L85.3004 238.3L84.1003 237.7L83.1003 238.2L82.7004 241.5L84.4004 243.3L84.0004 245.7L82.5004 246L75.6003 243L71.6003 246.7L71.9004 248.5H69.1003L67.7004 247L65.9004 243.2V241.3L66.7004 240.7L66.8004 239.4L65.1003 237.5L64.2004 235L61.5004 230.9L56.7004 229.6L49.3004 222.5L48.9004 220.1L51.7004 212.5L51.3004 210.6L52.5004 209.5V208.2L49.7004 206.7L46.7004 206L43.3004 207.2L42.0004 204.9L42.6003 203L41.9004 200.6L33.3004 192.2L31.1003 190.7L28.6003 184.8L27.4004 179.4L28.8004 175.7L29.5004 175L29.6003 172.7L28.9004 171.8L29.9004 170.3L31.7004 169.7L32.6003 169.4L33.6003 168.2V165.8L35.3004 163.4L35.8004 162.9L35.9004 159.4L35.0004 158L34.0004 157.7L32.9004 156.1L33.9004 152.1L36.9004 151.3H39.3004L43.5004 149.5L45.2004 147.3L45.3004 144.9L46.4004 143.6L47.7004 140.4L47.6003 137.8L44.8004 134.3H43.6003L42.7004 133.2L42.9004 131.6L41.2004 129.9L38.7004 128.6L39.2004 128L85.1003 125.2L85.2004 129.8L88.6003 134.4L89.8004 138.5L91.4004 141.7L95.5004 191.9Z" fill="white" fill-opacity="0.5"/>
<path d="M101.2 140.8L96.1003 143.1L91.4004 141.7L95.5004 191.9L94.5004 197.1V199.1L96.9004 202.6V203.3L96.6003 204.2L97.5004 206.1L97.2004 208.5L95.6003 210.3L94.3004 214.5L90.5004 219.8L90.4004 226.8H89.4004L90.3004 228.7L91.4004 229.5L92.0004 228.5L91.3004 226.8L95.9004 226.3L96.1003 227.5L97.2004 227.7L97.6003 226.8L97.0004 225.5L97.3004 224.7L98.6003 225.5L100.3 225.1L102 225.7L105.4 227.8L107.2 225L110.7 222.8L113.7 226.1L115.3 224L115.6 221.3L119.4 219L119.6 220.3L121.5 221.5L124.5 221.3L125.7 220.6L125.8 217.2L128.3 213.5L132.9 209.1L132.8 207.4L134 203.6L136.2 204.6L142.9 200.1L142.5 198.4L141 196.3L142 194.4L135.4 137.2L135.3 135.8L102.9 139.2L101.2 140.8Z" fill="white" fill-opacity="0.5"/>
<path d="M135.3 135.8L135.4 137.2L156.8 133.7L157.3 132.5L161.2 126.6V122.3L162 120.2L164.2 119.4L166.2 111.6L167.2 111.1L168.2 111.7L168 112.3L166.9 113.1L167.2 114L168 114.4L169.9 113L170.3 103.2L168.7 100.9L167.5 97.2004V94.7004L165.2 90.3004V88.5004L164 85.2004L161.7 82.2004L158.8 81.2004L154 84.2004L151.5 88.8004L151.3 89.7004L148.3 93.2004L146.8 93.0004L143.9 90.2004L143.8 86.8004L145.3 84.9004L147.3 84.7004L148.5 83.0004L148.7 79.0004L149.5 78.2004L150.6 78.1004L151.5 76.4004L151.3 66.8004L151 65.5004L149.8 64.3004L148.1 63.3004L148 61.5004L148.7 60.9004L150.5 61.7004L150.2 60.0004L148.3 57.3004L147.6 55.7004L146.5 54.6004H144.3L136.2 51.7004L134.8 50.0004L131.7 49.7004L130.5 50.0004L126.1 47.7004H124.7L125.2 48.7004L122.5 48.6004L122.6 49.2004L123.2 49.8004L120.7 51.9004L120.8 53.7004L122.3 56.0004L123.8 56.2004V56.8004L122.3 57.3004L120.2 57.2004L117.4 59.7004L117.5 62.2004L117.9 68.0004L115.7 71.4004L116.5 66.9004L115.7 66.3004L114.8 71.6004L113.8 69.3004L114.3 67.0004L113.8 66.0004L114.4 64.7004L113.8 63.6004L114.8 62.6004V61.4004L113.5 62.0004L112.2 65.1004L111.5 65.8004L110.2 68.2004L108.5 68.0004L108.4 69.2004H106.8L107 70.7004L107.2 72.7004L104.2 73.9004L104.3 75.2004L105.3 76.9004L105.2 82.1004L103.9 86.5004L102.2 89.0004L103.4 90.4004L104.2 93.9004L103.2 96.4004L103 98.5004L104.7 101.9L107.2 106.8L108.4 108.7L110 115.6L109.9 124.4L109 128.3L107 131.5L106.1 135.2L104.1 138.2L102.9 139.2L135.3 135.8ZM39.4996 39.0004L42.4996 42.8004L59.4996 46.6004L60.8997 47.6004L64.8997 48.4004L65.5996 48.9004L68.3997 48.7004L73.2996 49.5004L74.6996 51.0004L73.6996 52.0004L74.4996 52.8004L78.2996 53.5004L79.4996 54.7004L79.5996 59.1004L78.2996 61.9004L80.2996 62.0004L81.2996 61.2004L82.1996 62.0004L81.0996 65.1004L82.0996 66.7004L83.2996 67.0004L84.0996 65.2004L86.9996 60.6004L88.5996 54.6004L90.8997 52.6004L90.3997 51.0004L90.8997 50.1004L91.8997 51.7004L91.5996 53.9004L94.4996 51.7004L94.6996 49.4004L96.7996 50.0004L97.5996 48.4004L98.2996 49.0004L97.5996 50.5004L96.5996 51.0004L95.5996 53.0004L96.9996 54.8004L98.0996 54.3004L97.5996 53.6004L98.5996 52.1004L100.5 50.4004H101.3L101.5 47.8004L103.5 46.0004L111.4 45.5004L113.3 42.4004L117.1 42.1004L120.9 43.3004L125.1 46.0004L125.8 45.8004L125.6 42.3004L126.3 42.1004L130.8 43.2004L132.3 43.0004L135.2 42.3004L136.9 42.7004L138.7 42.8004V41.7004L138 40.8004L136.5 40.6004L135.4 39.8004L135.9 38.4004L135.1 38.1004L132.5 38.2004L132.4 37.2004L133.5 36.4004L134.1 37.2004L134.6 35.4004L133.9 34.7004L134.6 34.5004L133.2 33.2004L133.5 31.9004L133.6 30.0004H132.3L130.8 31.0004L128.9 31.1004L128.4 32.9004L126.5 33.1004L126.2 31.9004L124 32.0004L123 33.2004L122.3 33.1004L122.1 32.3004L119.5 32.7004L119.4 27.9004L120.4 25.9004L119.7 25.8004L117.9 26.9004H115.7L111.9 29.6004L105.7 29.9004L101.6 30.7004L99.6996 32.2004L98.2996 33.5004L95.7996 35.2004L95.4996 36.0004L94.8997 34.3004L93.5996 33.7004V34.3004L94.2996 35.0004V36.3004L92.7996 35.7004H92.1996L91.8997 36.9004L89.8997 35.0004L88.5996 34.8004L87.2996 36.3004L84.0996 36.2004L83.5996 34.8004L81.5996 32.9004L80.2996 31.3004V30.6004L79.1996 29.2004L76.5996 28.0004L73.2996 27.9004L72.1996 27.0004H70.7996L70.0996 27.4004L67.8997 29.6004L67.1996 30.7004L66.1996 30.0004L66.3997 29.0004L67.1996 26.9004L70.3997 21.9004L71.1996 21.7004L72.8997 19.8004L73.5996 18.2004L76.5996 17.6004L77.3997 17.0004L77.2996 16.0004L76.7996 15.5004L72.2996 15.7004L70.2996 16.2004L67.6996 17.4004L66.4996 18.6004L64.7996 20.8004L62.9996 21.8004L59.6996 25.2004L59.2996 26.8004L51.8997 31.4004L47.8997 31.9004L46.0996 32.3004L43.7996 35.3004L41.9996 36.0004L37.5996 38.3004L39.4996 39.0004ZM140.2 42.8004L144 42.9004L144.6 42.4004L144.4 40.4004L142.7 38.6004L140.8 38.7004L140.7 39.2004L141.8 39.6004L140.2 40.4004L139.9 41.4004L139.3 40.8004L138.9 41.6004L140.2 42.8004ZM65.0996 0.900391L62.7996 1.10039L60.0996 3.00039L52.9996 8.30039L53.7996 9.30039L55.5996 9.60039L58.3997 7.60039L57.2996 7.10039L59.5996 5.50039H60.5996L63.5996 3.60039L63.4996 2.70039L65.0996 0.900391ZM106.2 63.7004V64.7004L108.3 66.3004L108.1 63.9004L106.2 63.7004ZM105.5 66.5004L106.6 66.6004V67.5004H105.6L105.5 66.5004ZM126.9 45.2004V46.1004L127.7 45.9004V45.4004L126.9 45.2004ZM131.6 48.3004L131.5 47.2004L129.9 47.0004L129.3 46.6004H128.4L128 46.9004L128.9 47.3004L130 48.4004L131.6 48.3004ZM113.6 49.5004L113.5 50.6004L113.2 51.3004L113.4 53.5004L113.8 53.8004L114.5 53.9004L115 53.0004L115.1 51.4004L114.8 50.8004L114.7 49.7004L113.6 49.5004Z" fill="white" fill-opacity="0.5"/>
<path d="M157.7 134.8L159.6 134.4L162.6 135.7L164.7 136.3L165.4 137.2H166.4L167.4 135.7L168.7 136.5H170.2L170.1 137.5L167 138L165 139.1L166.9 139.9L168.5 138.4L170.9 138L173.1 139.5L174.6 139.4L177.1 137.7L180.7 135.6L185.9 135.3L190.8 129.4L194.6 126.3L203.9 121.2L208.8 151.1L206.6 152.3L208 154.4L207.9 156.6L208.5 158.6L207.4 162L207.3 167.4L206.3 171L206.8 172.1L206.4 174.3L205.3 174.8L203.3 178.1L201.5 180.1H200.9L199.1 181.8L197.8 180.6L196.3 182.4L196 183.6H194.7L193.4 185.8L193.5 187.9L192.5 188.4L193.9 189.5V191.4L192.9 191.6L192.2 192.4L191.2 192.9L190.6 190.8L189 190.3L188 192.6L187.7 194.8L186.6 196.1L187.9 199.7L186.4 200.5L186 204H184.5L181.3 205.4L180.1 203.3L176.6 201.9L175.8 199L175.3 198.2L171.9 200L171.3 201.7H170.4L169.1 202.4L167.9 201.6L164.9 200.8L163 201.6V202.6L160.8 202.4L158.9 200.3L156.6 200.5L152.5 199.8V198.8L150.3 195.4L147.4 194.2L145.5 195L143.3 194.9L142 194.4L135.4 137.2L156.8 133.7L157.7 134.8Z" fill="white" fill-opacity="0.5"/>
<path d="M82.9996 70L80.0996 70.8L80.2996 73.1L77.8997 76.5L77.6996 79.6L78.2996 80.3L79.0996 79.6L79.5996 78L81.5996 76.9L83.1996 72.7L86.6996 71.6L87.4996 68.3L88.1996 67.4L88.5996 65.3L90.3997 64.2V62.7L91.3997 61.8L92.7996 61.9V63.9L91.7996 64L92.2996 65.2L91.5996 67.4L90.9996 67.5L89.7996 72L89.0996 72.5L86.2996 79.7L85.9996 83.9L86.5996 85.9L86.6996 87.2L84.2996 89.1L84.5996 91L83.6996 94.1L83.9996 95.7L84.3997 99.4L83.2996 103.5L81.7996 108.5L82.7996 110L82.4996 110.3L83.2996 112L82.7996 113.1L83.8997 114V116.7L85.1996 118.2L84.7996 121.2L85.0996 125.2L39.1996 128L37.8997 125.2L34.5996 124.5L31.8997 123L29.8997 117.5L29.9996 115L31.5996 111.7L30.9996 110.6L28.8997 109L28.6996 106.4L27.5996 101.9L27.3997 98.9L25.1996 95.9L22.3997 95.2L17.1996 91.6L16.5996 88.3L10.2996 85.2L10.0996 83.9H6.79962L4.59961 81.3L2.59961 80L3.29962 74.9L2.39966 73.3L2.89966 67.9L3.89966 66.1L3.59961 63.4L2.39966 62.1L0.599609 61.8V60.1L3.39966 54.3L9.29962 50.4L8.89966 37.4L9.79962 37.8L10.3997 37.3L10.4996 36.2L11.3997 35.6L12.7996 36.8L13.4996 36.7H16.0996L22.8997 34.1L23.1996 33.1H24.3997L25.0996 31.9L25.4996 32.7L27.2996 31.8L29.0996 30.1L29.3997 30.6L30.3997 29.6L32.5996 31.2L31.7996 32.8L30.5996 34.2L31.0996 35.7L29.6996 37.3L30.0996 38.2L32.3997 37.1V35.7L35.6996 37.6L37.5996 38.3L39.4996 39L42.4996 42.8L59.4996 46.6L60.8997 47.6L64.8997 48.4L65.5996 48.9L68.3997 48.7L73.2996 49.5L74.6996 51L73.6996 52L74.4996 52.8L78.2996 53.5L79.4996 54.7L79.5996 59.1L78.2996 61.9L80.2996 62L81.2996 61.2L82.1996 62L81.0996 65.1L82.0996 66.7L83.2996 67L82.9996 70ZM33.4996 32.7L32.9996 32.8L31.4996 34.4L31.6996 34.9L33.1996 34.3V33.7L34.0996 33.4L33.4996 32.7ZM35.0996 31.6L34.0996 31.9L33.8997 32.6L34.7996 32.5L35.0996 31.6ZM33.7996 30L33.5996 30.9H35.2996L35.8997 30.5L35.9996 29.5L33.7996 30ZM36.5996 27L36.2996 28.9L37.4996 28.4L37.5996 27H36.5996ZM94.8997 58.9L92.8997 59.2L92.4996 60.5L93.7996 62.2L94.8997 58.9Z" fill="white" fill-opacity="0.5"/>
</svg>
