<svg width="1025" height="648" viewBox="0 0 1025 648" fill="none" xmlns="http://www.w3.org/2000/svg">
<path d="M125.6 471.7L128.6 469.5L129.4 467.1L128.4 465.5L126.6 465.3L125.5 463.7L126.6 456.8L128.2 456.5L130.6 453.3L132.2 446.3L134.6 442.7L139.4 441L140.7 439.7L140.3 437.8L138 435.3L136.8 429.5L135.4 427.7L134.1 424.3L135 422.2L136.4 419.2L136.9 416.3L136.4 411.4L137.4 397.8L140.9 397.2L144.6 398.6L145.8 401.3H147.8L150.2 398.4L153.6 380.9L199.8 389.1L239.8 395.1L222.4 519.2L185.1 513.8L120.9 476.3L121.4 473.4L123.4 471.6L125.6 471.7Z" fill="white" fill-opacity="0.5"/>
<path d="M55.4 449.7L58.8 454.9L57.4 455L55.6 453.1L55.4 449.7ZM57.3 439.9L59.1 444L61.7 445L62.4 444.4L61.1 441.9L58.5 439.5L57.3 439.9ZM37.4 420.9V423.3L39.4 424.5L43.8 424.3L44.8 423.3L41.7 423.1L37.4 420.9ZM31.5 421L34.8 421.5L36.2 423.7H32.4L31.5 421ZM79.4 466.5L78.4 463.5L78.6 460.5L78.2 452.6L76.4 447.8L75.2 446.4L74.6 444.9L67.6 436.3L64 436.4L62 434.5L63.1 432.7L62.4 429L60.2 427.8L56.3 427.2L53.5 425.9L52 424L47.5 417.4L44.8 415.2L41.1 414.7L38 412.4L33.3 410.9L30.5 410.6L28 408.1L28.2 405.3L29 400.5L30.8 395.4L29.4 393.8L25.4 384.4L22.7 380.7L22.3 377.7L20.7 375.4L20.9 372.9L18.9 367.9L16 365.2L16.6 358.1L19 357.3L20.8 354.2L20.4 351L19.4 350.1H16.9L14.4 346.8L12.9 343.3V335.8L14.1 331.6L14.3 329.5L16.8 329.7L16.7 331.3L15.9 332V334.5L19.6 337.7V333L18.2 329.6L18.7 328.5L17.7 326.8L20.5 325.3L18.6 322.3L17.2 322.8L15.7 326.6L16.2 327.9L15.4 328.9L14.5 328.8L9.1 322.7L9.8 317.1L8.7 313.2L2.2 300.4L3 289.7L5.3 286.1L5.5 279.7L0 268.6L0.3 263.4L7.2 255.9L8.9 253.5L8.8 252.1L12.8 242.9L12.9 234.5L13.8 232L79.9 250.6L63.5 313.7L64.6 317.2L135 422.2L134.1 424.3L135.4 427.7L136.8 429.5L138 435.3L140.3 437.8L140.7 439.7L139.4 441L134.6 442.7L132.2 446.3L130.6 453.3L128.2 456.5L126.6 456.8L125.5 463.7L126.6 465.3L128.4 465.5L129.4 467.1L128.6 469.5L125.6 471.7L123.4 471.6L79.4 466.5Z" fill="white" fill-opacity="0.5"/>
<path d="M153.6 380.9L150.2 398.4L147.8 401.3H145.8L144.6 398.6L140.9 397.2L137.4 397.8L136.4 411.4L136.9 416.3L136.4 419.2L135 422.2L64.6 317.2L63.5 313.7L79.9 250.6L126.9 261.8L151.3 267.2L174.6 271.9L153.6 380.9Z" fill="white" fill-opacity="0.5"/>
<path d="M219.2 302L222.5 280.1L174.6 271.9L153.6 380.9L199.8 389.1L239.8 395.1L251.3 306.8L219.2 302Z" fill="white" fill-opacity="0.5"/>
<path d="M970.501 182.9L970.901 181.8L967.701 169.5L967.601 169.2L952.701 172.6V173.3L951.801 173.6L951.301 172.9L940.801 175.3L943.601 191.6L945.401 193.1L941.901 196.5L943.601 198.7L949.001 194.2L950.701 192.9H951.501L953.901 189.8L955.301 189.9L958.201 188.8H960.301L965.601 186.1L968.401 185.2L969.401 184.2L970.901 184.7L970.501 182.9Z" fill="white" fill-opacity="0.5"/>
<path d="M972 132.7L972.6 136.7L975.8 138.7L976.6 140.9L978.9 142.3L980.3 142L981.3 139L980.5 136.1L982.1 135.2L982.6 132.4L982 131.1L985.3 129.2L983.1 126.9L984 124.5L985.4 122.3L985.9 125.5L987.5 123.5L988.8 124.4L990 123.6V121.9L993.2 120.6L993.5 117.7L996 117.5L998.7 113.8V113.1L997.8 112.6L997.7 109.3L998.3 108.2L998.5 109.8L999.5 109.3L999.3 106.1L998.4 106.4L998.3 107.6L997.1 106.2L998 104.8L998.6 104.9L999.7 104.5L1000.2 107.3L1002.2 107L1005.1 107.7V106.7L1004 105.5L1005.3 105.6L1005.4 103.3L1006 104.1L1006.3 106L1008.4 107.5L1008.6 106.5L1009.5 106.3L1009.2 105.5L1010 104.9L1009.9 103.3L1008.3 103.1L1006.3 103.8L1007.7 102.2L1008.4 101.4L1009.7 101.2L1010.1 102.5L1011.8 104.1L1012.2 102L1014.5 100.8L1013.6 99.5002L1013.7 97.8002L1014.8 98.3002H1015.5L1017.2 96.9002L1017.6 94.6002L1019.8 94.9002L1019.9 94.2002L1020.1 92.6002L1020.6 94.0002L1022.1 93.0002L1024.4 88.9002L1024.3 86.7002L1022.9 84.7002L1019.9 81.5002H1018L1017.2 83.7002L1014.3 80.7002L1014.6 79.9002V78.4002L1013 73.9002L1012.2 73.7002L1011.5 74.1002H1006.7L1006.4 70.5002L998.3 44.5002L991 40.8002L988.1 40.7002L981.4 47.3002L978.7 46.3002L977.7 42.4002H975L968.1 61.9002L968.8 68.1002L967.1 70.5002L966.7 75.1002L968 78.8002L968.8 79.0002V80.6002L967.2 85.1002L965.7 86.5002L964.4 88.7002L964 96.5002L961.6 95.5002L960.1 95.9002L972 132.7ZM1006.6 108L1005.6 108.8V110.1L1006.3 109.3L1007.2 110.1L1007.6 109.6L1008.7 109.8L1007.7 109L1008.1 108.2L1006.6 108ZM1004.9 110.6L1003.9 111.7L1004.4 112.1L1004.3 113.1H1005.4V111.3L1004.9 110.6ZM1001.9 109L1002.8 110.3L1003.8 110.8L1004.1 109.8V108L1002.8 107.3L1002.4 108.5L1001.9 109ZM1000.9 114L999.2 112.3L1000.8 109.9L1001.6 110.2L1001.8 111.3L1002.8 112.1V113.2L1001.8 114.2L1000.9 114Z" fill="white" fill-opacity="0.5"/>
<path d="M996.9 178.2H1000.3L1001.2 177.6L1001.3 176.3L999.4 174.5L999.8 175.5L998.3 177H996L996.1 177.8L996.9 178.2ZM987.9 180L986.7 179.4L987.7 178.6L988.3 176.5L989.5 175.5L990.3 175.3L990.9 176.2L992 176.4L992.6 175.8L993.1 177.7L991.8 178L989 178.7L987.9 180ZM953 156.6L971.4 152.8L972.4 151.3L972.7 149.6L974.6 149L975.1 147.9L976.8 146.8L978.1 147.1L979.8 150.4L980.8 150.8L981.9 149.5L982.7 150.8V151.9L979.7 154.3L979.9 155.1L979 156.1L979.4 156.9L978.1 157.2L979 158.4L978.2 159.1L978.8 160.1L979.7 159.9L980 159.1L981.1 159.7H982.9L985.4 162.3L985.6 164.9L987.4 165L988.2 166.1L988.8 168.1L989.8 168.8H991.7L993.6 168.7L994.4 167.8L996 166.6L997.1 166.3L995.9 164.2L995.6 165.1L994.1 161.5H993.3L992.9 162.4L991.7 161.4L993 160.3L994.8 160.7L997.1 162.8L998.4 165.5L999.6 168.8L998.6 171.6V169.8L997.9 168.8L994.4 171.1L993.5 170.8L991.9 171.8L991.8 173L989.6 174.2L987.6 176.3L985.6 178.2H984.4L987.7 174.9L988.2 173L987.7 172.4L987.4 171.1L986.5 171L986.4 172.3L985.4 173.5H984.2L983.9 174.6L984.3 175.8L983.1 176.9L982 176.7L981.6 177.7L980.2 174.7L978.9 173.6L976.3 172.3L975.7 170.1H974.9L974.2 167.5L967.7 169.5L967.6 169.2L952.7 172.6V173.3L951.8 173.6L951.3 172.9L940.8 175.3L940.1 174.3L940.6 159.3L953 156.6Z" fill="white" fill-opacity="0.5"/>
<path d="M959.6 97.6004L958.3 97.7004L957.3 96.6004L955.4 98.0004L954.9 104.1L956.1 106.4L955 109.9L957.1 112.7L956.7 114.4L956.8 115.7L955.7 117.8L954.3 118.2L953.7 119.5L951.6 120.5L950.9 122L952.3 125.4L951.8 127.9L952.3 129.4L951.3 131.3L951.7 133.2L950.4 135.1L950.6 137.3L949.9 138.4L950.6 142.9L951.3 144.4L950.8 147L951.7 148.8L951.5 151.3L951 152.6L950.9 154L953 156.6L971.4 152.8L972.4 151.3L972.7 149.6L974.6 149L975.1 147.9L976.8 146.8L978.1 147.1L978.9 142.3L976.6 140.9L975.8 138.7L972.6 136.7L972 132.7L960.1 95.9004L959.6 97.6004Z" fill="white" fill-opacity="0.5"/>
<path d="M939.5 199.4L924.9 194.5L923.1 197L923.2 199.2L920.2 204.6L921.7 206.4L921 208.4L920 209.4L920.5 213L923.2 213.9L924.2 216.7L926.3 217.8L930.5 221L927.2 223.6L925.6 225.9L923.8 228.9L922.2 229.5L920.8 231.2L919.8 233.4L919.5 235.5L920.3 236.4L920.7 238.7L921.9 239.3L924.3 240.8L926.1 241.6L927.7 242.4L927.8 243.5L928.6 243.6L929.7 242.4L930.5 242.8L932.6 243L932.4 245.9L932.6 248.4L934.4 247.7L935.9 243.8L937.5 239L940.4 236.2L941 232.7L940.4 231.5L942.1 228.6V227.4L941.4 226.3L942.6 223.6L942.3 220L941.7 211.8L940.5 210.4V211.8L941 212.4H939.9L939.3 212L938 211.8L937.1 212.4L935.9 210.8L936.6 209.1V208.1L938.3 207.4L939.1 205.3L939.5 199.4Z" fill="white" fill-opacity="0.5"/>
<path d="M969.9 185.6L968.6 185.7L968.1 186.7L969.9 185.6ZM939.3 208.3L940 208.9L941.3 208.6L942.4 208.9L943.3 207.6H945.2L947.6 206.7L952.7 204.6L952.2 204.1L950.3 204.9L948.3 205.8L948.5 205L951.1 203.9L951.9 202.9L953.1 203L957.2 200.7V201.4L953 204.4L957.5 201.6L959.2 199.4L960.7 199.3L965.2 196.2L968.4 193.1L971.4 190.8L972.4 189.6L970.7 189.5L969.7 190.7L969.5 191.4L968.6 192.1L967.8 191L966.1 192L966 192.9L965.1 192.7L965.6 191.8L964.4 191.1L963.8 192L964.7 192.3L964.9 192.8L964.6 193.3L963.2 195.9H961.3L962.2 194.1L963.1 193.5L963.4 191.8L964.8 190.2L965.7 189.4L967.2 188.7L966 188.5L965.3 189.4H964.6L963.5 190.2L963.3 191.2L961.1 193.3L960.7 194.2L959.3 195.1L951.6 197L951.8 197.9L950.9 198.6L948.9 198.9L947.9 198.3L947.7 199.4L946.6 199L946.7 200L945.5 199.9L944.3 200.4L944.1 201.5H943.1L943.3 202.5H942.6L942.8 203.5L941 203.9L939.5 206.2L939.3 208.3ZM938.5 207.9L936.9 208.3V209.3L936.2 210.9L936.8 211.6L939.2 209.3L939.1 208.4L938.5 207.9ZM928.4 112.7L927.8 114.6L929.2 115.5L928.8 117L929.3 120.2L931.5 122.5L931.1 124.7L931.7 126.7L931.3 127.7L931 131.5L934.1 138.2L933.3 140L934.2 142.2L935.1 140.6L937 142.1L940 156.3L939.5 158.3L940.6 159.3L940.1 174.3L940.8 175.3L943.6 191.6L945.4 193.1L941.9 196.5L943.6 198.7L942.3 202L940.8 203.7L939.3 206L939.1 205.3L939.5 199.4L924.9 194.5L923.3 193.4L921.4 193.7L918.4 191.5L915.4 185.7H913.4L913 184.2L911.3 183.1L840.8 197L840 191L844.3 187.1L844.9 185.4L848.8 182.9L849.4 180.5L851.7 178.5L852.5 177.4L850.8 174.1L849.1 173.6L847.3 170.6L847.1 167.4L854.7 163.5L862.9 161.9H867.3L870.5 163.5L871.4 163.4L873.2 161.8L876.6 161.1H879.6L882.2 159.8L884.7 157.2L887.1 154.1L889 153.7L890.1 153.2L890.5 150L889.1 147.3L887.9 146.6L889.9 145.3L889.8 143.5H888.3L886 142.1L885.9 139L892.1 132.9L892.8 130.5L896.5 124.2L902.4 117.8L904.5 116.1L907 116.2L927.6 111L928.4 112.7Z" fill="white" fill-opacity="0.5"/>
<path d="M923.3 193.4L921.4 193.7L918.4 191.5L915.4 185.7H913.4L913 184.2L911.3 183.1L840.8 197L840 191L835.8 194.4L834.9 194.5L832.2 197.5L828.9 199.2L833.8 229.1L837 248.8L854.4 245.9L914.9 234.1L916.1 232L917.6 230.9L919.2 230.6L920.8 231.2L922.2 229.5L923.8 228.9L925.6 225.9L927.2 223.6L930.5 221L926.3 217.8L924.2 216.7L923.2 213.9L920.5 213L920 209.4L921 208.4L921.7 206.4L920.2 204.6L923.2 199.2L923.1 197L924.9 194.5L923.3 193.4Z" fill="white" fill-opacity="0.5"/>
<path d="M980.199 174.7L978.899 173.6L976.299 172.3L975.699 170.1H974.899L974.199 167.5L967.699 169.5L970.899 181.8L970.499 182.9L970.899 184.7L976.499 181.1L976.599 178.1L975.799 177.3L976.199 176.7L976.099 175.4L975.199 174.7L976.399 174.3L975.499 172.7L977.299 173.4L977.599 174.8L978.299 176L976.899 175.2L977.999 176.9L977.699 178.1L977.099 177V179.5L977.699 178.6L978.099 179.5L979.399 178L979.199 175.5L980.599 178.6L981.599 177.7L980.199 174.7ZM975.499 186.9H976.399L976.899 186.3L976.099 185L975.399 185.7L975.499 186.9Z" fill="white" fill-opacity="0.5"/>
<path d="M956.1 106.4L955 109.9L957.1 112.7L956.7 114.4L956.8 115.7L955.7 117.8L954.3 118.2L953.7 119.5L951.6 120.5L950.9 122L952.3 125.4L951.8 127.9L952.3 129.4L951.3 131.3L951.7 133.2L950.4 135.1L950.6 137.3L949.9 138.4L950.6 142.9L951.3 144.4L950.8 147L951.7 148.8L951.5 151.3L951 152.6L950.9 154L953 156.6L940.6 159.3L939.5 158.3L940 156.3L937 142.1L935.1 140.6L934.2 142.2L933.3 140L934.1 138.2L931 131.5L931.3 127.7L931.7 126.7L931.1 124.7L931.5 122.5L929.3 120.2L928.8 117L929.2 115.5L927.8 114.6L928.4 112.7L927.6 111L954.9 104.1L956.1 106.4Z" fill="white" fill-opacity="0.5"/>
<path d="M149.3 177.9L124.9 172.5L133.4 135.2L136.3 129.4L136.7 127.3L137.5 126.4L136.6 124.4L133.7 123.2L133.9 119L137.9 113.2L140.4 112.4L142 110.1L141.9 108.5L143.7 106.9L146.9 101.4L151.1 96.5998L150.6 93.3998L147.1 90.2998L145.5 86.6998L146.6 82.3998L145.9 78.3998L158.6 22.2998L172.8 25.2998L168 47.2998L171.7 54.6998L170.1 59.4998L173.7 64.2998L175.6 64.9998L179.5 73.2998V75.3998L181.8 78.3998H182.7L184.1 80.4998H187.3V82.0998L180.2 99.0998L179.7 103.2L181.1 103.7L182.7 106.3L185.5 104.9L189.1 102.5L191 104.4L191.5 106.9L191 110.1L193.5 119.8L196.1 123.3L198.4 124.7L198.8 127.7V131.8L201.1 134.1L202.7 131.8L209.6 133.4L211.7 132.2L220.7 133.9L223.5 130.6L225.3 130L226.5 131.8L228.1 135.9L229 136L220.5 190.8L172.6 182.6L149.3 177.9Z" fill="white" fill-opacity="0.5"/>
<path d="M231 125.3L288.3 133.2L339.3 138.5L341.3 117.8L346.5 51.0998L293 45.4998L238.7 37.7998L172.8 25.2998L168 47.2998L171.7 54.6998L170.1 59.4998L173.7 64.2998L175.6 64.9998L179.5 73.2998V75.3998L181.8 78.3998H182.7L184.1 80.4998H187.3V82.0998L180.2 99.0998L179.7 103.2L181.1 103.7L182.7 106.3L185.5 104.9L189.1 102.5L191 104.4L191.5 106.9L191 110.1L193.5 119.8L196.1 123.3L198.4 124.7L198.8 127.7V131.8L201.1 134.1L202.7 131.8L209.6 133.4L211.7 132.2L220.7 133.9L223.5 130.6L225.3 130L226.5 131.8L228.1 135.9L229 136L231 125.3Z" fill="white" fill-opacity="0.5"/>
<path d="M77.9 161.3L124.9 172.5L133.4 135.2L136.3 129.4L136.7 127.3L137.5 126.4L136.6 124.4L133.7 123.2L133.9 119L137.9 113.2L140.4 112.4L142 110.1L141.9 108.5L143.7 106.9L146.9 101.4L151.1 96.5998L150.6 93.3998L147.1 90.2998L145.5 86.6998L115.2 79.3998L112.4 80.3998L107 79.4998L105.2 78.5998L103.7 79.7998L100.4 79.3998L95.9 79.8998L95 80.5998L90.8 80.1998L90 78.5998L88.8 78.3998L84.4 79.6998L82.8 78.5998L80.6 79.3998L80.4 77.5998L78.1 76.3998L76.6 76.1998L75.6 75.0998L72.6 75.3998L71.4 74.5998H70.2L69 75.4998L63.5 76.1998L56.9 71.9998L58 66.3998L57.6 62.2998L54.4 58.5998L50.7 58.6998L50.3 57.5998L50.7 56.3998L50 55.5998L49 55.6998L47.9 56.9998L46.4 56.7998L45.9 55.6998L44.9 55.5998L44.2 56.1998L42.2 54.2998V58.5998L40.9 59.8998L39.8 63.3998L39.7 65.6998L35.2 77.9998L22 109.3L18.8 113.9L17.2 113.8L17.3 115.9L12.1 123L11.8 126.3L12.8 127.6L12.9 130L11.7 131.1L10.5 134.1L10.6 139.8L11.8 142.7L77.9 161.3Z" fill="white" fill-opacity="0.5"/>
<path d="M145.9 78.4L146.6 82.4L145.5 86.7L115.2 79.4L112.4 80.4L107 79.5L105.2 78.6L103.7 79.8L100.4 79.4L95.9004 79.9L95.0004 80.6L90.8004 80.2L90.0004 78.6L88.8004 78.4L84.4004 79.7L82.8004 78.6L80.6004 79.4L80.4004 77.6L78.1004 76.4L76.6004 76.2L75.6004 75.1L72.6004 75.4L71.4004 74.6H70.2004L69.0004 75.5L63.5004 76.2L56.9004 72L58.0004 66.4L57.6004 62.3L54.4004 58.6L50.7004 58.7L50.3004 57.6L50.7004 56.4L50.0004 55.6L49.0004 55.7L46.9004 54.2L45.7004 54.6L43.7004 54.5L43.0004 53L41.4004 52.7L43.9004 45.2L43.2004 51.2L43.7004 51.7V49.7L44.5004 49.5L45.6004 51.8L45.1004 49.6L46.3004 45.4L48.1004 45.8L47.0004 43.8L46.0004 44.1L44.5004 43.7L44.7004 39.5L44.9004 41L45.8004 41.5L46.4004 39.9H49.6004L47.4004 38.7L45.7004 36.8L44.3004 38.4L45.5004 35.3L45.2004 30.7L45.0004 27.1L45.9004 21L45.4004 19L44.0004 16.9L44.1004 12.9L44.5004 10.2L46.5004 7.9L45.8004 6.5L46.0004 5.9L46.9004 6L54.7004 13.6L59.4004 15.5L64.5004 18L67.7004 17.9L67.9004 20.9L68.9004 19.3H69.6004L70.2004 22L70.7004 19.4L72.1004 19.2L72.6004 19.9L71.5004 20.5L71.6004 22.1L72.3004 20.6H73.4004L73.0004 23.2L71.9004 22.4L72.3004 23.8L72.2004 25.3L71.4004 26L68.9004 28.9L70.1004 25.5L68.5004 25.9L68.1004 28L64.3004 30.8L63.9004 31.8L61.8004 34L61.7004 35H63.9004L66.3004 34.8L66.8004 33.9L62.9004 34.4V33.8L65.5004 31L67.3004 30.2L69.2004 30L70.2004 28.4L73.2004 26.1V24.7H74.3004L74.4004 28.7H72.9004L72.3004 29.5L71.2004 28.6L71.5004 29.7V31.4L70.8004 32.1L70.5004 30.5L69.7004 31.3L70.4004 31.9L69.5004 33H70.8004L71.5004 32.5L71.6004 34.5L70.6004 36.4L69.7004 37.4L69.6004 39.2L68.6004 39L68.4004 37.6L69.3004 36.5L68.5004 36L67.7004 36.7L67.0004 38.9L66.2004 39.8L66.1004 37.8L66.9004 36.7L66.7004 35.6L65.5004 36.8L65.6004 39L65.0004 39.4L62.9004 39L61.6004 40.2L63.8004 39.6L63.6004 41.8L64.6004 40L65.0004 41.4L65.5004 40.4L66.2004 42.2H66.9004L67.6004 41.4L68.2004 41.3L70.2004 39.4L70.4004 38.2L71.2004 38.8L71.5004 39.7L72.2004 39.4L72.3004 38.2H73.6004L73.8004 35.3L73.7004 32.6L74.6004 32.9L73.9004 30.8L75.3004 30L75.5004 27.6L77.8004 25.4L78.8004 25.5L79.1004 24.1L77.9004 22.7L77.8004 19.2L77.0004 20.1L77.7004 23L77.1004 23.1L76.5004 21.2L75.9004 20.7L76.2004 18.4L78.0004 18.3L78.3004 19L78.6004 17.4L77.0004 15.7L76.4004 14.1L76.2004 16.1L77.1004 17.2L76.4004 17.6L75.4004 16.8L73.6004 18.1L75.1004 18.6L75.3004 21L75.0004 22.8L75.9004 21.5L77.3004 23.8L76.9004 25.7H75.4004V24.5L73.9004 23.3L74.4004 20.3L72.5004 17.7L75.2004 14.7L75.8004 10.6H76.7004L78.1004 13.8V11.2L79.3004 11.5V8.2L78.4004 7.4L77.2004 9.9L76.2004 6.9L77.5004 6.8L76.0004 1.9L77.9004 1.3L103.3 8.8L135 16.8L158.6 22.3L145.9 78.4ZM67.2004 39H67.7004L67.8004 39.8L67.3004 40.1L67.4004 40.7L66.7004 41.1L66.5004 40.2L67.0004 39.8L67.2004 39ZM72.2004 34.7L71.0004 36.6L70.9004 37.4L71.3004 37.6L71.8004 37L72.9004 37.1L72.2004 34.7ZM71.8004 13.1L72.3004 13.7L73.6004 13.4L73.8004 12.4L75.0004 10.6L74.0004 10.2L73.3004 11.8L73.2004 10.2L72.1004 10.4L71.4004 11.8L71.8004 13.1ZM75.0004 7.6L75.7004 9.1L74.8004 9.3L74.0004 9.7L73.8004 7.3L75.0004 7.6ZM72.3004 6L71.2004 5.8L71.7004 7.2L72.3004 6ZM71.3004 8.5L72.1004 8.9L71.7004 10L73.4004 9.5L73.2004 7.3L72.3004 7.1L71.3004 8.5ZM68.6004 8.1L68.9004 10.8L70.5004 12.1L71.1004 10.2L70.0004 8L68.6004 8.1ZM70.5004 7L69.4004 6L68.5004 6.1L70.3004 7.6L70.5004 7ZM73.7004 0H72.5004V0.8L73.7004 1.4V0ZM72.8004 32.5L73.2004 29.8H72.1004L71.9004 31.7L72.8004 32.5Z" fill="white" fill-opacity="0.5"/>
<path d="M694 535.4L694.4 528.1L693.5 526.9L691.8 526.2L689.3 523.4L689.8 520.5L738.6 515.4L737.9 513.2L736.4 511.7L735.9 510.3L736.5 504L734.1 498.3L734.6 495.7L734.9 492L737.1 488.2L736.9 487.1L735.2 486.1V482.9L733.4 481L730.5 474.9L717.6 429.1L671.9 433.1L673.2 435.1L671.9 502.1L676.3 535.3L677.2 534.8L678.5 534.9L679.1 535.3L679.9 535.2L681.9 531.4V529.1L683 528L684.4 528.5L687.8 534.9V535.8L684.5 538L688 537.6L692.9 536L694 535.4Z" fill="white" fill-opacity="0.5"/>
<path d="M635.2 435L636.1 432.8L637.3 433.3L638 432.3L637.2 431.6L637.5 430.1L636.4 429.2L637 428.2L636.9 426.7L635.8 426.6L636.6 425.8L637.9 426.6L638.2 425.2L637.8 424.1L637.9 423.4L639.9 424L639.5 422.5L641.1 421.2L640.6 420.3L639.5 420.4L638.9 419.5L639.8 418.6L641.4 418.4L641.9 417.6L643.3 417.4L643.2 416.6L642.3 415.7V415.2H643.8L644.2 414.5L642.8 413.5L642.7 412.9L631.5 413.7L634.3 408.6L636 407.1V404.9L634.4 402.4L594.6 404.4L555.5 405.1L559.6 429.5L558.9 468.5L561.5 470.8L564.3 469.5L567.5 470.3L567.7 482.2L620 480.9L621.2 479.4L621.7 476.4L620.2 474.1L619.7 471.9L620.6 471.2V470.4L618.9 469.3L618.8 468.6L620.4 467.7L619.2 466.6L620.9 459.5L624.3 457.9V457.1L623.2 455.7L626.1 450.3H628L629.5 449.1L629.2 443.9L632.3 439.4L634.1 438.8L633.6 435.7L635.2 435Z" fill="white" fill-opacity="0.5"/>
<path d="M802.701 513.1L798.701 512.4L797.001 511.5L794.801 512.9V515.4L796.201 517.5L795.701 521.8L793.601 522.4L792.601 521.3L792.001 518.1L741.901 521.4L738.601 515.4L689.801 520.5L689.301 523.4L691.801 526.2L693.501 526.9L694.401 528.1L694.001 535.4L692.901 536L693.401 536.4L694.401 536.1L695.101 535.3L705.601 532.6L714.801 532.1L722.901 534L731.401 539L733.801 539.8L736.001 541.8L735.901 544.5H738.301L740.201 543.5L742.701 543.6L744.701 542.8L747.601 540.8L750.701 537.9L751.801 537.5L752.401 538H753.801L754.301 537.2L753.801 536L753.201 535.4L753.401 534.6L755.401 533.5L760.401 533.1L761.201 534.1L762.201 534.2L764.501 535.2L767.501 537L768.701 538.7L769.801 539.9L772.601 541.3V543.7L775.401 545.6L776.401 545.7L778.001 547.1L778.701 548.7L779.701 548.9L780.501 551L781.201 551.6L782.201 550.5L785.101 550.6L785.601 552L786.701 552.9V554.2L789.601 556.4L789.801 566L788.001 571.8L789.001 573L788.801 576.4L788.001 577.8L788.701 579L791.001 581.3L791.301 582.8L792.101 583.8L791.701 581.9L793.001 581.3L793.801 577.7L790.801 576.5L790.901 575.9L793.501 575.5L794.401 578.1L795.501 578.7L795.601 576.7L796.701 577L797.301 577.8L797.201 578.5L794.301 582.7L794.101 583.8L792.401 585.7V586.8L796.101 590.6L801.401 598.5L803.201 600.6V602.4L806.001 607L808.301 607.6L809.001 606.4L806.901 606.7L803.901 602.2L804.101 600.8L805.601 600V598.5L805.001 597.2L805.901 596.3L806.301 597.2L807.001 597.7V601.7L805.801 601.1L805.001 602L806.401 603.6L807.401 606.2L808.601 605.6L810.901 606.8L813.001 609L814.601 614.1L817.701 618.9L818.501 617.6L821.301 617.1L824.501 618.4L824.801 620.1L828.101 623.9L828.201 625L830.401 627.7L829.701 628.2V630.9L832.401 632.3H833.901L836.601 630.5L838.101 630.8L839.201 631.2L841.501 629.5L841.701 628.8L842.901 629.1L845.301 627.4L846.601 625.1L845.901 621.9L845.701 620.6L846.801 616.6L847.401 616.4L848.001 618L848.801 616.2L848.001 609L847.601 598.5L846.601 591.7L845.901 590L839.301 578.9L834.101 569.8L831.901 566.5L830.601 562.9L830.401 559.5L831.301 559.2V558.3L830.201 556.1L826.201 552.1L818.601 542.4L812.901 532L808.601 521.3L808.001 517.6L806.801 516.6L806.301 512.8L802.701 513.1ZM811.901 647.6L813.601 647.5L812.901 646.5L811.901 647.6ZM819.201 646.5V645.8L820.801 645.6L824.501 642.3L826.001 641.7L828.401 640.8L828.701 642.1L830.401 642.9L827.801 644.1H825.401L821.501 646.6L819.201 646.5ZM836.401 638.9L833.401 640.3L832.401 641.6L833.501 641.7L836.401 638.9ZM840.201 636L839.101 636.3L837.701 638.3L838.801 638.1L840.301 636.5L840.201 636ZM848.501 620.3L846.801 625.9L846.001 626.9L845.001 629.5L843.801 631.1L843.101 632.8L841.201 635V635.9L843.901 633.1L846.301 629.6L846.901 627.6L849.001 622.7L848.501 620.3Z" fill="white" fill-opacity="0.5"/>
<path d="M812.8 482.1V483.5L808.6 489.7L807.4 489.9L808.9 490.4V492.4L808 493.5L807.4 499.5L805.1 505.7L805.6 507.7L806.3 512.8L802.7 513.1L798.7 512.4L797 511.5L794.8 512.9V515.4L796.2 517.5L795.7 521.8L793.6 522.4L792.6 521.3L792 518.1L741.9 521.4L738.6 515.4L737.9 513.2L736.4 511.7L735.9 510.3L736.5 504L734.1 498.3L734.6 495.7L734.9 492L737.1 488.2L736.9 487.1L735.2 486.1V482.9L733.4 481L730.5 474.9L717.6 429.1L740.5 426.2L761.9 423.2L761.8 425.1L759.9 426.1L758.5 429.3L758.7 430.6L764.8 434.4L767.4 434.1L770.5 438.1L770.9 439.8L775.1 444.9L777.7 446.6L779.1 446.8L781.3 448.4L782.4 450.6L784.4 452.2L786.2 452.7L788.9 455.4L789 456.8L791.6 459.6L796.6 461.9L800.2 468.6L800.5 471.3L804.4 473.4L806.9 478.2L807.7 481.3L811.9 481.7L812.8 482.1Z" fill="white" fill-opacity="0.5"/>
<path d="M743.1 390.5L722.6 391.9L717.4 392.7L700 393.7L697.4 394.5L674.8 396.5L674.1 395.9H670.4L671.6 399.1L671 400L647.7 401.5L648.7 398.8L650.1 399.7L650.8 399.3L652 395.2L651 394.2L652 392.2L652.2 391.3L650.9 390.5L650.6 388.7L654.6 385L661.5 388L663 387.7L663.4 385.3L661.7 383.5L662.1 380.2L663.1 379.7L664.3 380.3L664.9 379.1L668.6 378.5L668.7 377.6L667.2 375.4L667.1 374.3L669.3 371.6V370.7L670.4 371.5L671 370.5L670.3 368.8L674.9 368.3L675.1 369.5L676.2 369.7L676.6 368.8L676 367.5L676.3 366.7L677.6 367.5L679.3 367.1L681 367.7L684.4 369.8L686.2 367L689.7 364.8L692.7 368.1L694.3 366L694.6 363.3L698.4 361L698.6 362.3L700.5 363.5L703.5 363.3L704.7 362.6L704.8 359.2L707.3 355.5L711.9 351.1L711.8 349.4L713 345.6L715.2 346.6L721.9 342.1L721.5 340.4L720 338.3L721 336.4L722.3 336.9L724.5 337L726.4 336.2L729.3 337.4L731.5 340.8V341.8L735.6 342.5L737.9 342.3L739.8 344.4L742 344.6V343.6L743.9 342.8L746.9 343.6L748.1 344.4L749.4 343.7H750.3L750.9 342L754.3 340.2L754.8 341L755.6 343.9L759.1 345.3L760.3 347.4L760.2 348.5L760.8 349.5L760.2 353.1L762.1 354.7L762.9 355.8L763.9 356.4L763.8 357.3L768.2 362.9H769.6L771.1 364.7L772.3 365L773.7 364.9L768.8 371.5L765.9 372.5L762.9 375.5L762.5 377.7L760.4 379L760.3 380.7L758.9 382.1L757.1 382.6L756.6 384.5L755.6 384.9L748.7 389.1L743.1 390.5ZM645.1 401.8L644.4 401.1L644.6 400.1H645.7L646.4 400.8L646.1 401.8H645.1Z" fill="white" fill-opacity="0.5"/>
<path d="M653.499 540.8L652.299 539L652.599 537.7L647.799 530.9L648.699 526.3L649.699 524.9L649.799 523.5L613.799 525.5L615.499 513.6L617.899 508.8L623.899 500.4L622.099 497.9H624.099V494.6L621.699 492.1L622.199 490.4L620.999 489.4L619.399 482.3L619.999 480.9L567.699 482.2L568.199 502.1L568.899 505.5L571.499 508.3L572.199 513.7L575.999 518.3L576.799 522.6H577.799L577.699 529.9L574.399 536.3L575.699 538.6L574.399 540.1L575.099 543.1L574.999 547.4L572.799 550.9L572.699 551.7L570.999 552.9L571.999 554.7L573.199 555.8L574.799 554.5L580.099 553.6L586.199 553.5L595.799 557.3L603.799 558.3L605.299 556.9L607.099 556.7L611.899 558.9L613.499 558.5L614.599 557L610.399 555.2L608.199 556.2L607.099 556L605.699 554L608.999 551.8L610.599 551.7V553.4L612.099 553.3L615.499 553L615.899 555.3L616.999 555.7L617.599 557.6L622.399 558.6L624.099 560.2V560.9H622.899L621.399 562.6L623.099 563.8L628.499 564.8L631.199 567.6L635.599 566.6L631.899 566.8L631.799 566.2L634.599 565.5L634.799 563.7L635.999 563.4V562L637.099 562.1V563.7L639.599 563.8L640.399 561.9L641.299 562.2L641.499 564.7L642.699 564.9L640.899 566.9L643.499 566L645.499 564.9L648.399 561.6H647.699L646.399 562.8L645.999 562.7L645.499 561.9L646.399 560.7V558.4L647.499 557.6L648.199 558.3L649.199 557.5L650.199 557.4L650.799 558.7L650.199 560.6H652.599L657.699 562.3L658.199 563.6L659.799 565L662.599 565.1L663.899 565.8L665.699 564.8L666.599 563.1V561.4H665.199L663.999 560L662.899 558.9L659.699 558L657.099 558.2L652.899 555.8V553.5L654.199 552.5L656.599 553.1L653.499 551.5L653.699 550.7H657.299L659.899 547.2L657.299 545.4L658.099 543.9L656.899 543.1H656.099L654.099 545.2V547.3L653.499 548L652.399 547.9L650.799 546.5H649.499V545L650.099 544.3L650.899 545L652.599 543.4L653.299 541.8L654.099 541.5L653.499 540.8ZM643.199 538.1L645.099 539.1L645.899 540.2L648.399 540.3L649.899 541.1L650.099 542.5L649.699 543.1L648.799 541.6L647.399 542.8L646.499 544.2L643.699 545L642.099 545.1L638.399 544.1L638.499 542.4L640.499 540.4L641.599 538L643.199 538.1ZM638.499 539.3V540.4L636.699 542.4H635.499V540.2L637.099 538.7L638.499 539.3Z" fill="white" fill-opacity="0.5"/>
<path d="M873.9 337.3V335.6H873.1V337.4L873.9 337.3ZM885.7 333.4L886.9 331.2L887 328.7L886.4 328.1L885.7 329L885.5 331.1L884.7 332.5L884.4 333.6L879.8 335.2L879.1 336L877.8 336.2L877.4 337.1L876.1 337.7L875.8 335.2L876.2 334.5L875.4 334L875.6 332.5L874 333.5V331.5L875.2 331.2L873.3 330.8L872.6 330L873 328.7L872.2 328.1L871.5 329.7L872 330.5L871.3 331.1L870.2 331.6L868.2 330.6L868 329.4L867 328.3L865.6 326.6L867.1 325.8L866.1 325.2V324.3L866.7 323.3L868.4 323L867 322.4L866.9 321.7L865.6 321.6L865.2 322.7L864.6 323L864.7 319.6L865.7 318.6L866.5 319.3L866.6 317.7L865.6 316.8L864.7 317.9L863.7 319.3L863.1 318.3L863.3 315.9L864.2 314.9L865.1 315.8L866.3 315.1L865.9 313.4L864.9 314.4L864 312.3L863.8 310.6L864.9 308.2L866 306.8L867.4 306.6L866.9 305.8L867.4 305.2L867.1 304.5L867.3 302.4L865.8 302.8L865 303.9L866 305.2L863.4 308.8L862.5 308.4L861.8 309.3L861.2 311.5L859.4 312L860.7 312.6L862 313.9L861.8 314.6L862.7 315.8L861.6 316.8L862.1 317.1L861.6 318.4V320.5L861.1 321.8L862 322.9L862.7 326.3L864 327.7L865.6 329.1L866 331.9L867.6 333.9L868 335.3V336.3H867.3L865.8 335.1L865.4 335.3L864.2 335.1L862.5 333.7L861.1 333.4L860.1 333.9L858.9 333.6L858.5 333.8L856.8 333L855.8 332L854.8 330.7L854.2 330.5L853.4 331.2L851.8 332.5L850.7 331.7L850.3 329.4L851.1 327.3L850.8 326.8L851.1 326.4L850.4 325.4L851.4 325.3L852.4 324.4L852.8 322.6L854.5 320L851.9 318.2L850.9 319.9L850.3 319.3H849.3L848.7 319.2L848.3 318.8L848.4 318.3L846.7 317.7L845.9 318L844.7 317.9L844 317.2L843.5 317L843.3 316.3L843.9 315.5V314.6L842.7 314.4L841.7 313.5L840.8 313.6L839.2 313.3L838.3 312.9L838.5 311.3L837.5 310.8L837.3 310.1H836.6L835.8 308.9L836 307.9L833.4 308.3L831.2 306.7L829.8 307L828.9 308.4H827.6L825.9 311.3L822.6 311.7L820.7 310.7L818.1 314.5L815.9 314.2L812.8 318.1L811.9 319.7L810.1 321.3L808.4 309.9L868.9 298.1L876.5 325.2L887.4 322.9V328.2L887.3 331.3L886.3 333.1L885.7 333.4ZM872.3 331.6L871 332.5L871.8 334.3L873.5 335.1L873.1 333.5L872.3 331.6Z" fill="white" fill-opacity="0.5"/>
<path d="M674.801 536.6L669.801 536.7L667.401 535.2L659.501 537.7L658.601 537L658.101 537.2L658.001 538.8L657.401 538.9L654.801 541.6L654.101 541.5L653.501 540.8L652.301 539L652.601 537.7L647.801 530.9L648.701 526.3L649.701 524.9L649.801 523.5L613.801 525.5L615.501 513.6L617.901 508.8L623.901 500.4L622.101 497.9H624.101V494.6L621.701 492.1L622.201 490.4L621.001 489.4L619.401 482.3L620.001 480.9L621.201 479.4L621.701 476.4L620.201 474.1L619.701 471.9L620.601 471.2V470.4L618.901 469.3L618.801 468.6L620.401 467.7L619.201 466.6L620.901 459.5L624.301 457.9V457.1L623.201 455.7L626.101 450.3H628.001L629.501 449.1L629.201 443.9L632.301 439.4L634.101 438.8L633.601 435.7L671.901 433.1L673.201 435.1L671.901 502.1L676.301 535.3L674.801 536.6Z" fill="white" fill-opacity="0.5"/>
<path d="M880 368.1L850.9 374.2L811.5 381.5L782.1 385V390.2L780.6 390.1L779.2 391.3L776.8 396.5L774.2 395.4L770.7 397.9L770 400L768.5 401.2L767.7 400.4L767.6 398.9L766.8 398.7L762.8 402L762.2 405.4L757.5 407.8L757 409L753.8 411.6L750.2 412.1L745.6 415.1L744.8 419.2L743.5 420.1L742 420L740.6 421.3L740.5 426.2L761.9 423.2L766.3 421.3L767.6 421.2L774.9 416.9L798.1 414.7L798.5 415.2L798.3 416.6L799 416.9L800.2 415.4L803.5 418.4L803.6 421L823.3 418.2L847.8 435.3L851.8 433.1L854.8 432.4H856.5L857.6 433.5L858.4 431.5L859 426.5L860.7 422.6L866.1 416.5L870.2 413L875.6 410.7L878.1 410.3L879.4 410.7L880.1 411.8L883.4 405.2L886.7 399.9L886 399.6L881.6 406.4L881.1 405.6L883.1 403.4L882.7 401.9L880.7 401.4L881.7 402.7L880.5 402.8L879.3 401L878.1 403L876.5 403.2L877.5 400.5L878.2 398.8L878 395.9L875.8 395.8L876.7 394.9L877.8 395.2L880.5 395.3L881.3 394.8H883.6L885.6 392.9L885.8 389.7L887.1 388.3L888.3 388.1L889.6 387.1L889.1 383.4L886.9 379.6L884.2 379.4L883.3 381L882.8 380L880.1 380.2L878.9 380.6L877 381.8L876.7 381.4H875.8L874 382.6L871.4 383.1V381.8L872.2 380.8L873.2 381.5H874.2L875.9 379.4L879.6 377.7L881.6 375.5H884L884.8 376.8L886.5 377.6L886 376.1L885.7 374.5L882.9 371.4L882.6 370L882.2 371L881.3 369.7L880 368.1ZM887 399.1L889.7 396.6L894.3 393.3V389.6L893.9 386.5L892.2 382.3L893.7 383.7L894.7 386.9L895.1 394.5L893.4 394.9L890.3 397.3L887.1 400.5L887 399.1ZM888.9 379.8L888 379.6V380.6L890.5 382.8L890.3 381.4L888.9 379.8ZM891.8 381.9L890.4 379.1L888.2 375.7L885.8 372.7L883.6 368.4L882.8 367.7L885 372L885.3 373.3L888.7 378.8L890.5 380.9L891.8 381.9Z" fill="white" fill-opacity="0.5"/>
<path d="M552.5 466.6L547.9 462.8L545.7 461.9L545.2 463.5L540.1 463.8L539.5 462.3L534.5 464.8L532.9 464.1L529.2 464.4L528.6 466.1L525 467L523.7 465.8L522.5 465.9L520.5 464.1L518.4 464.8L516.4 464.3L514.6 462.3L512.1 466.5L510.9 467.3L509.9 465.5L510.2 463.5L509 462.8L506.7 465.3L505 464.1L504.9 462.6L503.6 463.1L501 461.4L498 464L495.7 462.9L496.4 460.8L494.1 460.9L492.2 457.9L488.7 456.8L486.7 459.1L484.4 456.9L483 457.3L481 457.4L477.5 455.5L475.2 455.6L474 454.9L473.5 452L471.2 450.3L470.1 451.8L468.7 450.8L467.5 450.4L466.4 451.4L464.9 451.1L462.4 448.1L459.7 446.8L461.1 404.1L408.5 400.9L409.1 390.3L425.6 391.3L493.3 394.2L555.3 394.3L555.5 405.1L559.6 429.5L558.9 468.5L552.5 466.6Z" fill="white" fill-opacity="0.5"/>
<path d="M823.3 418.2L803.6 421L803.5 418.4L800.2 415.4L799 416.9L798.3 416.6L798.5 415.2L798.1 414.7L774.9 416.9L767.6 421.2L766.3 421.3L761.9 423.2L761.8 425.1L759.9 426.1L758.5 429.3L758.7 430.6L764.8 434.4L767.4 434.1L770.5 438.1L770.9 439.8L775.1 444.9L777.7 446.6L779.1 446.8L781.3 448.4L782.4 450.6L784.4 452.2L786.2 452.7L788.9 455.4L789 456.8L791.6 459.6L796.6 461.9L800.2 468.6L800.5 471.3L804.4 473.4L806.9 478.2L807.7 481.3L811.9 481.7L812.7 480.2H813.3L815.1 478.7L815.6 476.7L818.8 474.6L819.1 472.2L817.9 471.3L818.7 470.6L819.5 471L820.8 470.6L822.6 468.5L826.4 466.7L828 464.3L828.1 463.6L832.9 459.2L832.8 458.7L831.9 457.9L833 456.4H833.8L834.2 456.9L834.9 456.1H836.2L836.8 454.6L839.1 452.5L838.8 447.1L839.6 444.8L843.2 438.6L845.6 436.4L847.8 435.3L823.3 418.2Z" fill="white" fill-opacity="0.5"/>
<path d="M671.9 433.1L717.6 429.1L740.5 426.2L740.6 421.3L742 420L743.5 420.1L744.8 419.2L745.6 415.1L750.2 412.1L753.8 411.6L757 409L757.5 407.8L762.2 405.4L762.8 402L766.8 398.7L767.6 398.9L767.7 400.4L768.5 401.2L770 400L770.7 397.9L774.2 395.4L776.8 396.5L779.2 391.3L780.6 390.1L782.1 390.2V385L782.4 384.3L777.8 384.8L777.6 385.8L748.7 389.1L743.1 390.5L722.6 391.9L717.4 392.7L700 393.7L697.4 394.5L674.8 396.5L674.1 395.9H670.4L671.6 399.1L671 400L647.7 401.5L646.9 402.5L646.1 401.8H645.1V403.1L645.7 404.1L645.6 405.1L644.2 405.6L645.6 407.1L644.8 407.8L643.1 407.6L643.7 408.6L644.9 409.7V410.4L643.7 410.9L642.7 412.9L642.8 413.5L644.2 414.5L643.8 415.2H642.3V415.7L643.2 416.6L643.3 417.4L641.9 417.6L641.4 418.4L639.8 418.6L638.9 419.5L639.5 420.4L640.6 420.3L641.1 421.2L639.5 422.5L639.9 424L637.9 423.4L637.8 424.1L638.2 425.2L637.9 426.6L636.6 425.8L635.8 426.6L636.9 426.7L637 428.2L636.4 429.2L637.5 430.1L637.2 431.6L638 432.3L637.3 433.3L636.1 432.8L635.2 435L633.6 435.7L671.9 433.1Z" fill="white" fill-opacity="0.5"/>
<path d="M333.301 497L333.601 494L368.001 497.6L399.801 500.2L407.701 400.9H408.501L461.101 404.1L459.701 446.8L462.401 448.1L464.901 451.1L466.401 451.4L467.501 450.4L468.701 450.8L470.101 451.8L471.201 450.3L473.501 452L474.001 454.9L475.201 455.6L477.501 455.5L481.001 457.4L483.001 457.3L484.401 456.9L486.701 459.1L488.701 456.8L492.201 457.9L494.101 460.9L496.401 460.8L495.701 462.9L498.001 464L501.001 461.4L503.601 463.1L504.901 462.6L505.001 464.1L506.701 465.3L509.001 462.8L510.201 463.5L509.901 465.5L510.901 467.3L512.101 466.5L514.601 462.3L516.401 464.3L518.401 464.8L520.501 464.1L522.501 465.9L523.701 465.8L525.001 467L528.601 466.1L529.201 464.4L532.901 464.1L534.501 464.8L539.501 462.3L540.101 463.8L545.201 463.5L545.701 461.9L547.901 462.8L552.501 466.6L558.901 468.5L561.501 470.8L564.301 469.5L567.501 470.3L567.701 482.2L568.201 502.1L568.901 505.5L571.501 508.3L572.201 513.7L576.001 518.3L576.801 522.6H577.801L577.701 529.9L574.401 536.3L575.701 538.6L574.401 540.1L575.101 543.1L575.001 547.4L572.801 550.9L572.701 551.7L571.001 552.9L572.001 554.7L573.201 555.8L569.701 556.1L561.301 560L557.801 561.4L556.001 563.2L555.301 562.7L557.401 560.4L559.201 559.7L559.701 558.8L556.801 558.7L556.101 557.9L556.901 555.9L556.001 554.1H555.401L553.001 555.4L551.101 558L551.401 559.7L554.701 563.1L556.001 563.4V564.2L553.701 565.8L548.801 569.8L544.801 573.7L541.601 575.1L536.601 578.1L532.901 580.1L528.401 582L524.301 584.5L527.501 581.5V580.4L528.101 579.6L527.901 577.8L526.401 577.7L525.301 579.2L522.701 580.5L520.901 579.3L520.601 577.6H519.101L519.901 579.8L521.301 580.5L522.501 581.4L524.301 583L523.601 583.8L519.701 585.5L518.001 585.6L516.801 584.4L516.301 586.5L516.801 587.6L514.101 589.6L512.601 589.8L511.801 590.5L511.401 592.2L509.601 595.5L508.001 596.2L506.401 595.6L504.601 596.7L504.901 598.1L506.201 598.9L507.201 599.7L505.401 603.2L505.101 606L504.101 607.7L502.701 608.7L499.801 609.1L501.601 609.7L503.501 609.1L503.101 612.3L502.001 612.2L502.201 613.4L502.501 614.8L501.201 615.7V618.8L502.801 620.2L503.401 623.3L503.001 625.5L502.001 625.9L502.401 627.4L503.501 627.8L504.301 629.5V632.1L505.401 634.2L507.601 636.8L507.501 637.5L505.301 637.3L503.701 638.7L503.901 640.1L503.001 639.8L501.601 639.6L498.201 635.9L495.901 635.3H488.801L486.001 634.5L482.401 631.5L480.701 630.5L478.601 630.6L475.401 628L470.001 626.4V625.1L468.601 623.3L467.701 618.6L466.601 616.9L464.901 615.5V613.9L463.501 613.3L464.101 610.7L463.801 608.5L462.501 607.1L463.201 604.1L462.401 600.9L460.701 599.5H459.601L455.601 596L455.701 594.1L454.901 592.4L454.101 592.2L453.201 589.8L451.201 588.2L448.301 585.7L448.101 583.6L447.101 582.9L447.301 581.3L447.801 580.6L446.401 579.1L446.501 578.4L444.501 576.2L444.601 574.1L441.901 569.2L441.801 567.5L440.001 564.4L434.901 559.6V558.5L431.601 556.8L431.501 555L430.301 554.6V553.9L429.501 553.7L427.401 550.9H426.601L425.901 550.3L424.601 551.4H422.401L419.801 550.3H415.201L411.001 548.2L409.701 550.1L407.501 549.5L404.201 550.7L402.501 553.5L400.501 556.7L399.401 561.1L398.001 562.3L396.901 562.4L396.001 564L394.701 564.6L394.601 566.4L391.701 566.5L389.901 565H388.901L386.901 562.1L383.301 561.6L381.601 559.3L380.301 559.1L378.201 558.3L374.801 554.9L375.001 554.1L373.401 552.9L372.401 552.8L369.001 549.7L368.901 547.7L366.601 543.7L366.801 542.1L366.101 540.8L366.901 539.3L366.801 536.9L364.201 532.8L363.601 528.6L362.001 527V526L360.801 525.8L360.101 524.7L357.701 523L356.801 522.9L354.901 521.3V520.2L352.001 518.4L351.401 516.3L348.801 514L345.601 509.6L342.601 508.3L340.501 506.5L340.701 505.3L339.401 503.9L337.701 500.2L335.301 499.2L333.301 497ZM508.201 635.3L509.001 635.4L508.401 630.6L504.901 618.3L504.701 610.2L509.601 599.7L515.701 591.5L522.901 586.4V585.7H522.101L519.501 586.7L515.901 589L515.201 590.5L507.001 602.1L504.201 610V618.8L507.801 630.8L508.201 635.3Z" fill="white" fill-opacity="0.5"/>
<path d="M885.699 333.4L884.599 336.2L885.099 337.3L885.499 336.2L886.299 333.1L885.699 333.4ZM851.099 326.4L850.399 325.4L851.399 325.3L852.399 324.4L852.799 322.6L852.599 322.1L852.699 321.6L852.399 320.9L851.799 320.4L851.399 320.3L850.899 319.9L850.299 319.3H849.299L848.699 319.2L848.299 318.8L848.399 318.3L846.699 317.7L845.899 318L844.699 317.9L843.999 317.2L843.499 317L843.299 316.3L843.899 315.5V314.6L842.699 314.4L841.699 313.5L840.799 313.6L839.199 313.3L838.799 314L838.399 315.6L837.899 317.9L827.899 312.7L827.699 313.6L828.599 315.2L827.799 317.5L827.899 320.4L826.699 321.2L826.199 323.3L825.299 324.1L823.899 325.9L822.999 326.7L821.999 329.2L819.599 328.1L817.299 336.6L815.999 338.2L813.199 337.7L811.899 335.8L809.599 335.1L809.499 339.8L808.099 341.5L808.499 343L806.399 345.2L806.799 347.1L803.099 353.4L802.099 356.7L803.599 357.9L802.099 359.8L802.199 361.2L799.899 363.2L799.199 362.1L794.899 365.2L793.399 364.2L792.799 365.6L793.599 366.1L793.099 367L787.599 369.4L784.599 367.6L783.799 369.3L781.899 371.1L779.599 371.2L775.199 368.9L775.099 367.4L773.599 366.7L774.399 365.5L773.699 364.9L768.799 371.5L765.899 372.5L762.899 375.5L762.499 377.7L760.399 379L760.299 380.7L758.899 382.1L757.099 382.6L756.599 384.5L755.599 384.9L748.699 389.1L777.599 385.8L777.799 384.8L782.399 384.3L782.099 385L811.499 381.5L850.899 374.2L879.999 368.1L879.399 366.9L879.799 366.8L880.699 367.7L880.599 366.3L880.299 364.4L881.899 365.6L882.799 367.7V366.4L879.399 360.9V359.7L878.699 358.9L877.399 359.6L877.899 361H877.099L876.699 360L876.099 360.9L875.199 359.8L873.099 359.7L872.899 360.4L874.399 362.5L872.999 361.8L872.499 360.8L872.099 361.6L871.299 361.7L869.799 363.4L870.099 361.8V360.4L868.599 359.7L866.799 359.2L866.599 357.5L865.999 356.2L865.399 357.3L863.699 356.3L861.699 356.6L861.899 355.7L863.399 355.5L864.299 356L865.999 355.2L866.899 355.6L867.399 356.6V357.3L869.299 357.7L869.599 358.6L870.499 359L871.399 360.2L872.799 358.6H873.399L873.299 356.5L871.999 357.5L871.399 356.6L872.899 356.4L871.699 355.5L870.499 356.1L870.399 354.4L868.699 354.6L866.499 353.5L864.699 351.3L868.299 353.5L869.199 353.8L870.899 353L869.199 352.1L869.799 351.5L868.799 351L869.599 350.8L869.299 349.9L870.399 350.8L870.799 350L871.199 351.3L872.399 352.1L872.999 351.6L872.499 351L872.399 348.5L871.299 348.4L869.699 347.6L870.599 346.5L868.599 346.4L868.199 345.9L866.799 346.5L865.399 345.7L864.899 344.5L862.799 343.3L860.699 341.5L858.499 339.6L861.499 340.9L862.399 342.1L864.499 342.8L866.799 345.3L866.999 343.6L867.599 344.9L869.899 345.4V341.4L869.099 340.3L870.199 340.7L870.299 339.1L867.199 337.7L865.599 337.5L864.299 337.3L864.599 336.1L863.099 335.8L862.999 335.2H861.199L860.999 336L860.299 335H857.599L856.599 334.6L856.399 333.6L855.199 333L854.799 331.5L854.199 331.1L853.499 332.2L852.599 332.4L851.699 333.1H850.199L849.299 331.8L849.699 328.7L850.199 326.3L850.799 326.8L851.099 326.4ZM872.999 338L873.899 337.9V337.3L873.099 337.4L872.999 338ZM880.499 352.2L879.499 354.9L880.699 353.6L880.499 352.2ZM878.699 336.9L879.399 337.2L879.199 339.1L878.699 338.6L877.399 339.6L878.399 340L876.599 344.4L876.699 352.5L878.599 355.6L879.099 354.1L879.499 351.4L879.199 349.1L879.899 348.2L879.699 346.8L880.899 346.2L880.299 345.7L880.799 345L881.599 346.1L881.399 347.2L880.999 351.1L882.099 348.9L882.499 345.8L882.599 342.8L882.299 340.8L882.899 338.5L883.999 336.7L884.099 334.5L884.399 333.6L879.799 335.2L879.099 336L878.699 336.9Z" fill="white" fill-opacity="0.5"/>
<path d="M853.5 319L850.9 317.2L849.9 318.9L850.4 319.3L850.8 319.4L851.4 319.9L851.7 320.6L851.6 321.1L851.8 321.6L853.5 319Z" fill="white" fill-opacity="0.5"/>
<path d="M774.399 365.5L773.599 366.7L775.099 367.4L775.199 368.9L779.599 371.2L781.899 371.1L783.799 369.3L784.599 367.6L787.599 369.4L793.099 367L793.599 366.1L792.799 365.6L793.399 364.2L794.899 365.2L799.199 362.1L799.899 363.2L802.199 361.2L802.099 359.8L803.599 357.9L802.099 356.7L803.099 353.4L806.799 347.1L806.399 345.2L808.499 343L808.099 341.5L809.499 339.8L809.599 335.1L811.899 335.8L813.199 337.7L815.999 338.2L817.299 336.6L819.599 328.1L821.999 329.2L822.999 326.7L823.899 325.9L825.299 324.1L826.199 323.3L826.699 321.2L827.899 320.4L827.799 317.5L828.599 315.2L827.699 313.6L827.899 312.7L837.899 317.9L838.399 315.6L838.799 314L839.199 313.3L838.299 312.9L838.499 311.3L837.499 310.8L837.299 310.1H836.599L835.799 308.9L835.999 307.9L833.399 308.3L831.199 306.7L829.799 307L828.899 308.4H827.599L825.899 311.3L822.599 311.7L820.699 310.7L818.099 314.5L815.899 314.2L812.799 318.1L811.899 319.7L810.099 321.3L808.399 309.9L790.999 312.8L787.799 293.1L785.599 294.3L786.999 296.4L786.899 298.6L787.499 300.6L786.399 304L786.299 309.4L785.299 313L785.799 314.1L785.399 316.3L784.299 316.8L782.299 320.1L780.499 322.1H779.899L778.099 323.8L776.799 322.6L775.299 324.4L774.999 325.6H773.699L772.399 327.8L772.499 329.9L771.499 330.4L772.899 331.5V333.4L771.899 333.6L771.199 334.4L770.199 334.9L769.599 332.8L767.999 332.3L766.999 334.6L766.699 336.8L765.599 338.1L766.899 341.7L765.399 342.5L764.999 346H763.499L760.299 347.4L760.199 348.5L760.799 349.5L760.199 353.1L762.099 354.7L762.899 355.8L763.899 356.4L763.799 357.3L768.199 362.9H769.599L771.099 364.7L772.299 365L773.699 364.9L774.399 365.5Z" fill="white" fill-opacity="0.5"/>
<path d="M873.2 294.6L871.6 294.9L870.1 296L868.9 298.1L876.5 325.2L887.4 322.9L885.2 315.3L884.1 315.8L880.8 313.2L880.3 311.5L878.5 310.5L878.3 306.8L876.2 304.6L875.1 303.8L873.9 302.7L873.5 299.5L873.8 297.4L874.8 295.2L873.2 294.6Z" fill="white" fill-opacity="0.5"/>
<path d="M694.5 276.9L693.5 282.1V284.1L695.9 287.6V288.3L695.6 289.2L696.5 291.1L696.2 293.5L694.6 295.3L693.3 299.5L689.5 304.8L689.4 311.8H688.4L689.3 313.7V314.6L687.1 317.3L687.2 318.4L688.7 320.6L688.6 321.5L684.9 322.1L684.3 323.3L683.1 322.7L682.1 323.2L681.7 326.5L683.4 328.3L683 330.7L681.5 331L674.6 328L670.6 331.7L670.9 333.5H668.1L666.7 332L664.9 328.2V326.3L665.7 325.7L665.8 324.4L664.1 322.5L663.2 320L660.5 315.9L655.7 314.6L648.3 307.5L647.9 305.1L650.7 297.5L650.3 295.6L651.5 294.5V293.2L648.7 291.7L645.7 291L642.3 292.2L641 289.9L641.6 288L640.9 285.6L632.3 277.2L630.1 275.7L627.6 269.8L626.4 264.4L627.8 260.7L628.5 260L628.6 257.7L627.9 256.8L628.9 255.3L630.7 254.7L631.6 254.4L632.6 253.2V250.8L634.3 248.4L634.8 247.9L634.9 244.4L634 243L633 242.7L631.9 241.1L632.9 237.1L635.9 236.3H638.3L642.5 234.5L644.2 232.3L644.3 229.9L645.4 228.6L646.7 225.4L646.6 222.8L643.8 219.3H642.6L641.7 218.2L641.9 216.6L640.2 214.9L637.7 213.6L638.2 213L684.1 210.2L684.2 214.8L687.6 219.4L688.8 223.5L690.4 226.7L694.5 276.9Z" fill="white" fill-opacity="0.5"/>
<path d="M700.2 225.8L695.1 228.1L690.4 226.7L694.5 276.9L693.5 282.1V284.1L695.9 287.6V288.3L695.6 289.2L696.5 291.1L696.2 293.5L694.6 295.3L693.3 299.5L689.5 304.8L689.4 311.8H688.4L689.3 313.7L690.4 314.5L691 313.5L690.3 311.8L694.9 311.3L695.1 312.5L696.2 312.7L696.6 311.8L696 310.5L696.3 309.7L697.6 310.5L699.3 310.1L701 310.7L704.4 312.8L706.2 310L709.7 307.8L712.7 311.1L714.3 309L714.6 306.3L718.4 304L718.6 305.3L720.5 306.5L723.5 306.3L724.7 305.6L724.8 302.2L727.3 298.5L731.9 294.1L731.8 292.4L733 288.6L735.2 289.6L741.9 285.1L741.5 283.4L740 281.3L741 279.4L734.4 222.2L734.3 220.8L701.9 224.2L700.2 225.8Z" fill="white" fill-opacity="0.5"/>
<path d="M734.3 220.8L734.4 222.2L755.8 218.7L756.3 217.5L760.2 211.6V207.3L761 205.2L763.2 204.4L765.2 196.6L766.2 196.1L767.2 196.7L767 197.3L765.9 198.1L766.2 199L767 199.4L768.9 198L769.3 188.2L767.7 185.9L766.5 182.2V179.7L764.2 175.3V173.5L763 170.2L760.7 167.2L757.8 166.2L753 169.2L750.5 173.8L750.3 174.7L747.3 178.2L745.8 178L742.9 175.2L742.8 171.8L744.3 169.9L746.3 169.7L747.5 168L747.7 164L748.5 163.2L749.6 163.1L750.5 161.4L750.3 151.8L750 150.5L748.8 149.3L747.1 148.3L747 146.5L747.7 145.9L749.5 146.7L749.2 145L747.3 142.3L746.6 140.7L745.5 139.6H743.3L735.2 136.7L733.8 135L730.7 134.7L729.5 135L725.1 132.7H723.7L724.2 133.7L721.5 133.6L721.6 134.2L722.2 134.8L719.7 136.9L719.8 138.7L721.3 141L722.8 141.2V141.8L721.3 142.3L719.2 142.2L716.4 144.7L716.5 147.2L716.9 153L714.7 156.4L715.5 151.9L714.7 151.3L713.8 156.6L712.8 154.3L713.3 152L712.8 151L713.4 149.7L712.8 148.6L713.8 147.6V146.4L712.5 147L711.2 150.1L710.5 150.8L709.2 153.2L707.5 153L707.4 154.2H705.8L706 155.7L706.2 157.7L703.2 158.9L703.3 160.2L704.3 161.9L704.2 167.1L702.9 171.5L701.2 174L702.4 175.4L703.2 178.9L702.2 181.4L702 183.5L703.7 186.9L706.2 191.8L707.4 193.7L709 200.6L708.9 209.4L708 213.3L706 216.5L705.1 220.2L703.1 223.2L701.9 224.2L734.3 220.8ZM638.5 124L641.5 127.8L658.5 131.6L659.9 132.6L663.9 133.4L664.6 133.9L667.4 133.7L672.3 134.5L673.7 136L672.7 137L673.5 137.8L677.3 138.5L678.5 139.7L678.6 144.1L677.3 146.9L679.3 147L680.3 146.2L681.2 147L680.1 150.1L681.1 151.7L682.3 152L683.1 150.2L686 145.6L687.6 139.6L689.9 137.6L689.4 136L689.9 135.1L690.9 136.7L690.6 138.9L693.5 136.7L693.7 134.4L695.8 135L696.6 133.4L697.3 134L696.6 135.5L695.6 136L694.6 138L696 139.8L697.1 139.3L696.6 138.6L697.6 137.1L699.5 135.4H700.3L700.5 132.8L702.5 131L710.4 130.5L712.3 127.4L716.1 127.1L719.9 128.3L724.1 131L724.8 130.8L724.6 127.3L725.3 127.1L729.8 128.2L731.3 128L734.2 127.3L735.9 127.7L737.7 127.8V126.7L737 125.8L735.5 125.6L734.4 124.8L734.9 123.4L734.1 123.1L731.5 123.2L731.4 122.2L732.5 121.4L733.1 122.2L733.6 120.4L732.9 119.7L733.6 119.5L732.2 118.2L732.5 116.9L732.6 115H731.3L729.8 116L727.9 116.1L727.4 117.9L725.5 118.1L725.2 116.9L723 117L722 118.2L721.3 118.1L721.1 117.3L718.5 117.7L718.4 112.9L719.4 110.9L718.7 110.8L716.9 111.9H714.7L710.9 114.6L704.7 114.9L700.6 115.7L698.7 117.2L697.3 118.5L694.8 120.2L694.5 121L693.9 119.3L692.6 118.7V119.3L693.3 120V121.3L691.8 120.7H691.2L690.9 121.9L688.9 120L687.6 119.8L686.3 121.3L683.1 121.2L682.6 119.8L680.6 117.9L679.3 116.3V115.6L678.2 114.2L675.6 113L672.3 112.9L671.2 112H669.8L669.1 112.4L666.9 114.6L666.2 115.7L665.2 115L665.4 114L666.2 111.9L669.4 106.9L670.2 106.7L671.9 104.8L672.6 103.2L675.6 102.6L676.4 102L676.3 101L675.8 100.5L671.3 100.7L669.3 101.2L666.7 102.4L665.5 103.6L663.8 105.8L662 106.8L658.7 110.2L658.3 111.8L650.9 116.4L646.9 116.9L645.1 117.3L642.8 120.3L641 121L636.6 123.3L638.5 124ZM739.2 127.8L743 127.9L743.6 127.4L743.4 125.4L741.7 123.6L739.8 123.7L739.7 124.2L740.8 124.6L739.2 125.4L738.9 126.4L738.3 125.8L737.9 126.6L739.2 127.8ZM664.1 85.9004L661.8 86.1004L659.1 88.0004L652 93.3004L652.8 94.3004L654.6 94.6004L657.4 92.6004L656.3 92.1004L658.6 90.5004H659.6L662.6 88.6004L662.5 87.7004L664.1 85.9004ZM705.2 148.7V149.7L707.3 151.3L707.1 148.9L705.2 148.7ZM704.5 151.5L705.6 151.6V152.5H704.6L704.5 151.5ZM725.9 130.2V131.1L726.7 130.9V130.4L725.9 130.2ZM730.6 133.3L730.5 132.2L728.9 132L728.3 131.6H727.4L727 131.9L727.9 132.3L729 133.4L730.6 133.3ZM712.6 134.5L712.5 135.6L712.2 136.3L712.4 138.5L712.8 138.8L713.5 138.9L714 138L714.1 136.4L713.8 135.8L713.7 134.7L712.6 134.5Z" fill="white" fill-opacity="0.5"/>
<path d="M756.7 219.8L758.6 219.4L761.6 220.7L763.7 221.3L764.4 222.2H765.4L766.4 220.7L767.7 221.5H769.2L769.1 222.5L766 223L764 224.1L765.9 224.9L767.5 223.4L769.9 223L772.1 224.5L773.6 224.4L776.1 222.7L779.7 220.6L784.9 220.3L789.8 214.4L793.6 211.3L802.9 206.2L807.8 236.1L805.6 237.3L807 239.4L806.9 241.6L807.5 243.6L806.4 247L806.3 252.4L805.3 256L805.8 257.1L805.4 259.3L804.3 259.8L802.3 263.1L800.5 265.1H799.9L798.1 266.8L796.8 265.6L795.3 267.4L795 268.6H793.7L792.4 270.8L792.5 272.9L791.5 273.4L792.9 274.5V276.4L791.9 276.6L791.2 277.4L790.2 277.9L789.6 275.8L788 275.3L787 277.6L786.7 279.8L785.6 281.1L786.9 284.7L785.4 285.5L785 289H783.5L780.3 290.4L779.1 288.3L775.6 286.9L774.8 284L774.3 283.2L770.9 285L770.3 286.7H769.4L768.1 287.4L766.9 286.6L763.9 285.8L762 286.6V287.6L759.8 287.4L757.9 285.3L755.6 285.5L751.5 284.8V283.8L749.3 280.4L746.4 279.2L744.5 280L742.3 279.9L741 279.4L734.4 222.2L755.8 218.7L756.7 219.8Z" fill="white" fill-opacity="0.5"/>
<path d="M682 155L679.1 155.8L679.3 158.1L676.9 161.5L676.7 164.6L677.3 165.3L678.1 164.6L678.6 163L680.6 161.9L682.2 157.7L685.7 156.6L686.5 153.3L687.2 152.4L687.6 150.3L689.4 149.2V147.7L690.4 146.8L691.8 146.9V148.9L690.8 149L691.3 150.2L690.6 152.4L690 152.5L688.8 157L688.1 157.5L685.3 164.7L685 168.9L685.6 170.9L685.7 172.2L683.3 174.1L683.6 176L682.7 179.1L683 180.7L683.4 184.4L682.3 188.5L680.8 193.5L681.8 195L681.5 195.3L682.3 197L681.8 198.1L682.9 199V201.7L684.2 203.2L683.8 206.2L684.1 210.2L638.2 213L636.9 210.2L633.6 209.5L630.9 208L628.9 202.5L629 200L630.6 196.7L630 195.6L627.9 194L627.7 191.4L626.6 186.9L626.4 183.9L624.2 180.9L621.4 180.2L616.2 176.6L615.6 173.3L609.3 170.2L609.1 168.9H605.8L603.6 166.3L601.6 165L602.3 159.9L601.4 158.3L601.9 152.9L602.9 151.1L602.6 148.4L601.4 147.1L599.6 146.8V145.1L602.4 139.3L608.3 135.4L607.9 122.4L608.8 122.8L609.4 122.3L609.5 121.2L610.4 120.6L611.8 121.8L612.5 121.7H615.1L621.9 119.1L622.2 118.1H623.4L624.1 116.9L624.5 117.7L626.3 116.8L628.1 115.1L628.4 115.6L629.4 114.6L631.6 116.2L630.8 117.8L629.6 119.2L630.1 120.7L628.7 122.3L629.1 123.2L631.4 122.1V120.7L634.7 122.6L636.6 123.3L638.5 124L641.5 127.8L658.5 131.6L659.9 132.6L663.9 133.4L664.6 133.9L667.4 133.7L672.3 134.5L673.7 136L672.7 137L673.5 137.8L677.3 138.5L678.5 139.7L678.6 144.1L677.3 146.9L679.3 147L680.3 146.2L681.2 147L680.1 150.1L681.1 151.7L682.3 152L682 155ZM632.5 117.7L632 117.8L630.5 119.4L630.7 119.9L632.2 119.3V118.7L633.1 118.4L632.5 117.7ZM634.1 116.6L633.1 116.9L632.9 117.6L633.8 117.5L634.1 116.6ZM632.8 115L632.6 115.9H634.3L634.9 115.5L635 114.5L632.8 115ZM635.6 112L635.3 113.9L636.5 113.4L636.6 112H635.6ZM693.9 143.9L691.9 144.2L691.5 145.5L692.8 147.2L693.9 143.9Z" fill="white" fill-opacity="0.5"/>
<path d="M392.601 358.3L376.101 357.3L324.401 352.5L271.801 346L283.301 257.7L328.201 263.4L365.701 266.8L398.801 269.2L397.401 291.3L392.601 358.3Z" fill="white" fill-opacity="0.5"/>
<path d="M574.899 218L576.999 219.6L577.599 220.7L575.999 224L575.899 226.5L577.899 232L580.599 233.5L583.899 234.2L585.199 237L584.699 237.6L587.199 238.9L588.899 240.6L588.699 242.2L589.599 243.3H590.799L593.599 246.8L593.699 249.4L592.399 252.6L591.299 253.9L591.199 256.3L589.499 258.5L585.299 260.3H582.899L579.899 261.1L578.899 265.1L579.999 266.7L580.999 267L581.899 268.4L581.799 271.9L581.299 272.4L579.599 274.8V277.2L578.599 278.4L577.699 278.7L575.899 279.3L574.899 280.8L575.599 281.7L575.499 284L574.799 284.7L573.299 283.9L572.199 282.8L571.599 281.2L569.899 279.9L555.599 280.7L528.399 281.9L502.499 281.8L500.699 277.4L501.399 275.2L500.599 271.9L500.799 269L499.499 268.3L499.099 262.2L496.299 257.2L496.099 253.5L493.899 249.2L492.599 245.5V244.1L491.999 242.4V240.1L491.499 239.2L490.799 237.5L490.499 236.2L489.199 235L490.199 230.7L491.899 225.6L491.199 223.6L489.899 223.2L489.499 221.6L490.499 221.1L490.599 220L489.299 218.5L489.399 216.9L491.599 217H519.799L556.099 216.1L574.699 215.4L574.899 218Z" fill="white" fill-opacity="0.5"/>
<path d="M477.1 294.5L433.4 293.3L397.4 291.3L392.6 358.3L460.3 361.2L522.3 361.3L521.8 313.2L518.6 312.5L516 307.8L513.5 305.3L514 303L516.7 300.4L516.8 299.2L515.3 297.1L514.4 298.1L512.4 297.5L509.5 294.5H477.1Z" fill="white" fill-opacity="0.5"/>
<path d="M482.701 103.6L481.601 106.4L482.401 107.8L482.101 112.9L481.601 114L484.301 123.1L485.601 125.6L486.301 139.6L487.301 142.3L486.901 148.1L489.801 155.5L490.101 161.3L490.001 163.4L489.901 165.6L489.001 167.6L485.901 169.5L485.601 170.7L487.301 173.2L487.701 175L490.301 175.6L491.801 177.5L491.601 217H519.801L556.101 216.1L574.701 215.4L573.601 210.9L573.401 207.9L571.201 204.9L568.401 204.2L563.201 200.6L562.601 197.3L556.301 194.2L556.101 192.9H552.801L550.601 190.3L548.601 189L549.301 183.9L548.401 182.3L548.901 176.9L549.901 175.1L549.601 172.4L548.401 171.1L546.601 170.8V169.1L549.401 163.3L555.301 159.4L554.901 146.4L555.801 146.8L556.401 146.3L556.501 145.2L557.401 144.6L558.801 145.8L559.501 145.7L558.301 143.5L562.601 140.4L565.701 136.7L567.301 135.9L572.001 130L578.301 124.2L582.201 122.1L588.501 119.4L596.101 114.9L595.501 114.5L591.801 115.2L589.001 115.3L588.001 113.7L586.601 112.8L576.801 114L575.801 111.2L574.201 111.1L572.501 111.9L568.801 115H564.701L562.601 114L562.301 112.3L558.401 111.5L557.801 109.9L557.101 108.6L556.101 109.5L553.501 109.6L543.601 104.1H540.701L539.901 103.4L536.801 104.7L536.001 106L532.701 106.8L531.401 106.6V104.9L530.701 104H524.801L524.401 102.6H521.801L520.701 103L518.301 101.3L518.601 99.9002L518.001 97.5002L517.301 96.4002L517.101 93.4002L516.101 90.3002L514.001 88.7002H511.101L511.201 96.7002L480.301 96.3002L482.701 103.6Z" fill="white" fill-opacity="0.5"/>
<path d="M573.3 283.9L572.2 282.8L571.6 281.2L569.9 279.9L555.6 280.7L528.4 281.9L502.5 281.8L503.8 283.1L503.5 284.5L505.6 288.2L509.5 294.5L512.4 297.5L514.4 298.1L515.3 297.1L516.8 299.2L516.7 300.4L514 303L513.5 305.3L516 307.8L518.6 312.5L521.8 313.2L522.3 361.3L522.5 372.1L561.6 371.4L601.4 369.4L603 371.9V374.1L601.3 375.6L598.5 380.7L609.7 379.9L610.7 377.9L611.9 377.4V376.7L610.7 375.6L610.1 374.6L611.8 374.8L612.6 374.1L611.2 372.6L612.6 372.1L612.7 371.1L612.1 370.1V368.8L611.4 368.1L611.6 367.1H612.7L613.4 367.8L613.1 368.8L613.9 369.5L614.7 368.5L615.7 365.8L617.1 366.7L617.8 366.3L619 362.2L618 361.2L619 359.2L619.2 358.3L617.9 357.5H615.1L613.7 356L611.9 352.2V350.3L612.7 349.7L612.8 348.4L611.1 346.5L610.2 344L607.5 339.9L602.7 338.6L595.3 331.5L594.9 329.1L597.7 321.5L597.3 319.6L598.5 318.5V317.2L595.7 315.7L592.7 315L589.3 316.2L588 313.9L588.6 312L587.9 309.6L579.3 301.2L577.1 299.7L574.6 293.8L573.4 288.4L574.8 284.7L573.3 283.9Z" fill="white" fill-opacity="0.5"/>
<path d="M420.499 226.1L458.499 227.7L461.899 230.9L463.599 231.1L465.699 233.1L467.499 233L469.299 231L470.799 231.6L471.799 230.9L472.499 231.4L473.399 231L474.099 231.4L474.999 231L475.999 231.5L477.399 230.9L479.399 231.5L479.999 232.6L486.099 234.8L487.299 236.1L488.199 238.7L489.999 239.4L491.499 239.2L491.999 240.1V242.4L492.599 244.1V245.5L493.899 249.2L496.099 253.5L496.299 257.2L499.099 262.2L499.499 268.3L500.799 269L500.599 271.9L501.399 275.2L500.699 277.4L502.499 281.8L503.799 283.1L503.499 284.5L505.599 288.2L509.499 294.5H477.099L433.399 293.3L397.399 291.3L398.799 269.2L365.699 266.8L369.399 222.6L420.499 226.1Z" fill="white" fill-opacity="0.5"/>
<path d="M375.5 367.9H374.7L366.8 467.2L335 464.6L300.6 461L300.3 464L302.3 466.2L271.5 462.1L270.1 472.3L254.4 470.1L271.8 346L324.4 352.5L376.1 357.3L375.5 367.9Z" fill="white" fill-opacity="0.5"/>
<path d="M482.701 103.6L481.601 106.4L482.401 107.8L482.101 112.9L481.601 114L484.301 123.1L485.601 125.6L486.301 139.6L487.301 142.3L486.901 148.1L489.801 155.5L490.101 161.3L490.001 163.4L460.501 163L414.501 160.9L375.301 158L380.501 91.3003L425.001 94.7003L480.301 96.3003L482.701 103.6Z" fill="white" fill-opacity="0.5"/>
<path d="M414.5 160.9L460.5 163L490 163.4L489.9 165.6L489 167.6L485.9 169.5L485.6 170.7L487.3 173.2L487.7 175L490.3 175.6L491.8 177.5L491.6 217L489.4 216.9L489.3 218.5L490.6 220L490.5 221.1L489.5 221.6L489.9 223.2L491.2 223.6L491.9 225.6L490.2 230.7L489.2 235L490.5 236.2L490.8 237.5L491.5 239.2L490 239.4L488.2 238.7L487.3 236.1L486.1 234.8L480 232.6L479.4 231.5L477.4 230.9L476 231.5L475 231L474.1 231.4L473.4 231L472.5 231.4L471.8 230.9L470.8 231.6L469.3 231L467.5 233L465.7 233.1L463.6 231.1L461.9 230.9L458.5 227.7L420.5 226.1L369.4 222.6L373.3 178.7L375.3 158L414.5 160.9Z" fill="white" fill-opacity="0.5"/>
<path d="M373.299 178.7L322.299 173.4L264.999 165.5L262.999 176.2L254.499 231L251.199 252.9L283.299 257.7L328.199 263.4L365.699 266.8L369.399 222.6L373.299 178.7Z" fill="white" fill-opacity="0.5"/>
</svg>
