<svg width="1186" height="582" viewBox="0 0 1186 582" fill="none" xmlns="http://www.w3.org/2000/svg">
<mask id="path-1-inside-1_35_723" fill="white">
<path fill-rule="evenodd" clip-rule="evenodd" d="M155.448 0H0V270H86V308V464H347V582H767V464H1126V357.851V308H1183V124.28V38H1029.45H874V0H593.233H309H155.448Z"/>
</mask>
<path fill-rule="evenodd" clip-rule="evenodd" d="M155.448 0H0V270H86V308V464H347V582H767V464H1126V357.851V308H1183V124.28V38H1029.45H874V0H593.233H309H155.448Z" fill="black" fill-opacity="0.75"/>
<path d="M0 0V-2H-2V0H0ZM0 270H-2V272H0V270ZM86 270H88V268H86V270ZM86 464H84V466H86V464ZM347 464H349V462H347V464ZM347 582H345V584H347V582ZM767 582V584H769V582H767ZM767 464V462H765V464H767ZM1126 464V466H1128V464H1126ZM1126 308V306H1124V308H1126ZM1183 308V310H1185V308H1183ZM1183 38H1185V36H1183V38ZM874 38H872V40H874V38ZM874 0H876V-2H874V0ZM0 2H155.448V-2H0V2ZM2 270V0H-2V270H2ZM86 268H0V272H86V268ZM88 308V270H84V308H88ZM88 464V308H84V464H88ZM347 462H86V466H347V462ZM349 582V464H345V582H349ZM767 580H347V584H767V580ZM765 464V582H769V464H765ZM1126 462H767V466H1126V462ZM1124 357.851V464H1128V357.851H1124ZM1124 308V357.851H1128V308H1124ZM1183 306H1126V310H1183V306ZM1181 124.28V308H1185V124.28H1181ZM1181 38V124.28H1185V38H1181ZM1029.45 40H1183V36H1029.45V40ZM874 40H1029.45V36H874V40ZM872 0V38H876V0H872ZM593.233 2H874V-2H593.233V2ZM309 2H593.233V-2H309V2ZM155.448 2H309V-2H155.448V2Z" fill="white" fill-opacity="0.8" mask="url(#path-1-inside-1_35_723)"/>
<line x1="348" y1="463" x2="348" y2="386" stroke="white" stroke-opacity="0.8" stroke-width="2"/>
<line x1="766" y1="469" x2="766" y2="329" stroke="white" stroke-opacity="0.8" stroke-width="2"/>
<line x1="595" y1="328" x2="767" y2="328" stroke="white" stroke-opacity="0.8" stroke-width="2"/>
<line x1="1014" y1="202" x2="1186" y2="202" stroke="white" stroke-opacity="0.8" stroke-width="2"/>
<line x1="349" y1="328" x2="523" y2="328" stroke="white" stroke-opacity="0.8" stroke-width="2"/>
<line x1="348" y1="329" x2="348" y2="248" stroke="white" stroke-opacity="0.8" stroke-width="2"/>
<line x1="349" y1="249" x2="273" y2="249" stroke="white" stroke-opacity="0.8" stroke-width="2"/>
<line x1="188" y1="269" x2="87" y2="269" stroke="white" stroke-opacity="0.8" stroke-width="2"/>
<line x1="187" y1="268" x2="187" y2="138" stroke="white" stroke-opacity="0.8" stroke-width="2"/>
<line x1="1013" y1="329" x2="1013" y2="203" stroke="white" stroke-opacity="0.8" stroke-width="2"/>
<line x1="1015" y1="375" x2="1015" y2="461" stroke="white" stroke-opacity="0.8" stroke-width="2"/>
<line x1="1014" y1="262" x2="767" y2="262" stroke="white" stroke-opacity="0.8" stroke-width="2"/>
<line x1="873" y1="43" x2="873" y2="136" stroke="white" stroke-opacity="0.8" stroke-width="2"/>
<line x1="871" y1="261" x2="871" y2="177" stroke="white" stroke-opacity="0.8" stroke-width="2"/>
<line x1="632" y1="177" x2="632" y2="-4.75248e-06" stroke="white" stroke-opacity="0.8" stroke-width="2"/>
<line x1="389" y1="177" x2="389" y2="0.999995" stroke="white" stroke-opacity="0.8" stroke-width="2"/>
<line x1="390" y1="176" x2="510" y2="176" stroke="white" stroke-opacity="0.8" stroke-width="2"/>
<line x1="189" y1="1" x2="189" y2="89" stroke="white" stroke-opacity="0.8" stroke-width="2"/>
</svg>
