<svg width="369" height="385" viewBox="0 0 369 385" fill="none" xmlns="http://www.w3.org/2000/svg">
<path d="M141.601 270.3L125.101 269.3L73.4008 264.5L20.8008 258L32.3008 169.7L77.2008 175.4L114.701 178.8L147.801 181.2L146.401 203.3L141.601 270.3Z" fill="white" fill-opacity="0.5"/>
<path d="M323.899 130L325.999 131.6L326.599 132.7L324.999 136L324.899 138.5L326.899 144L329.599 145.5L332.899 146.2L334.199 149L333.699 149.6L336.199 150.9L337.899 152.6L337.699 154.2L338.599 155.3H339.799L342.599 158.8L342.699 161.4L341.399 164.6L340.299 165.9L340.199 168.3L338.499 170.5L334.299 172.3H331.899L328.899 173.1L327.899 177.1L328.999 178.7L329.999 179L330.899 180.4L330.799 183.9L330.299 184.4L328.599 186.8V189.2L327.599 190.4L326.699 190.7L324.899 191.3L323.899 192.8L324.599 193.7L324.499 196L323.799 196.7L322.299 195.9L321.199 194.8L320.599 193.2L318.899 191.9L304.599 192.7L277.399 193.9L251.499 193.8L249.699 189.4L250.399 187.2L249.599 183.9L249.799 181L248.499 180.3L248.099 174.2L245.299 169.2L245.099 165.5L242.899 161.2L241.599 157.5V156.1L240.999 154.4V152.1L240.499 151.2L239.799 149.5L239.499 148.2L238.199 147L239.199 142.7L240.899 137.6L240.199 135.6L238.899 135.2L238.499 133.6L239.499 133.1L239.599 132L238.299 130.5L238.399 128.9L240.599 129H268.799L305.099 128.1L323.699 127.4L323.899 130Z" fill="white" fill-opacity="0.5"/>
<path d="M226.1 206.5L182.4 205.3L146.4 203.3L141.6 270.3L209.3 273.2L271.3 273.3L270.8 225.2L267.6 224.5L265 219.8L262.5 217.3L263 215L265.7 212.4L265.8 211.2L264.3 209.1L263.4 210.1L261.4 209.5L258.5 206.5H226.1Z" fill="white" fill-opacity="0.5"/>
<path d="M231.701 15.6002L230.601 18.4002L231.401 19.8002L231.101 24.9002L230.601 26.0002L233.301 35.1002L234.601 37.6002L235.301 51.6002L236.301 54.3002L235.901 60.1002L238.801 67.5002L239.101 73.3002L239.001 75.4002L238.901 77.6002L238.001 79.6002L234.901 81.5002L234.601 82.7002L236.301 85.2002L236.701 87.0002L239.301 87.6002L240.801 89.5002L240.601 129H268.801L305.101 128.1L323.701 127.4L322.601 122.9L322.401 119.9L320.201 116.9L317.401 116.2L312.201 112.6L311.601 109.3L305.301 106.2L305.101 104.9H301.801L299.601 102.3L297.601 101L298.301 95.9002L297.401 94.3002L297.901 88.9002L298.901 87.1002L298.601 84.4002L297.401 83.1002L295.601 82.8002V81.1002L298.401 75.3002L304.301 71.4002L303.901 58.4002L304.801 58.8002L305.401 58.3002L305.501 57.2002L306.401 56.6002L307.801 57.8002L308.501 57.7002L307.301 55.5002L311.601 52.4002L314.701 48.7002L316.301 47.9002L321.001 42.0002L327.301 36.2002L331.201 34.1002L337.501 31.4002L345.101 26.9002L344.501 26.5002L340.801 27.2002L338.001 27.3002L337.001 25.7002L335.601 24.8002L325.801 26.0002L324.801 23.2002L323.201 23.1002L321.501 23.9002L317.801 27.0002H313.701L311.601 26.0002L311.301 24.3002L307.401 23.5002L306.801 21.9002L306.101 20.6002L305.101 21.5002L302.501 21.6002L292.601 16.1002H289.701L288.901 15.4002L285.801 16.7002L285.001 18.0002L281.701 18.8002L280.401 18.6002V16.9002L279.701 16.0002H273.801L273.401 14.6002H270.801L269.701 15.0002L267.301 13.3002L267.601 11.9002L267.001 9.50019L266.301 8.4002L266.101 5.4002L265.101 2.30019L263.001 0.700195H260.101L260.201 8.7002L229.301 8.30019L231.701 15.6002Z" fill="white" fill-opacity="0.5"/>
<path d="M322.3 195.9L321.2 194.8L320.6 193.2L318.9 191.9L304.6 192.7L277.4 193.9L251.5 193.8L252.8 195.1L252.5 196.5L254.6 200.2L258.5 206.5L261.4 209.5L263.4 210.1L264.3 209.1L265.8 211.2L265.7 212.4L263 215L262.5 217.3L265 219.8L267.6 224.5L270.8 225.2L271.3 273.3L271.5 284.1L310.6 283.4L350.4 281.4L352 283.9V286.1L350.3 287.6L347.5 292.7L358.7 291.9L359.7 289.9L360.9 289.4V288.7L359.7 287.6L359.1 286.6L360.8 286.8L361.6 286.1L360.2 284.6L361.6 284.1L361.7 283.1L361.1 282.1V280.8L360.4 280.1L360.6 279.1H361.7L362.4 279.8L362.1 280.8L362.9 281.5L363.7 280.5L364.7 277.8L366.1 278.7L366.8 278.3L368 274.2L367 273.2L368 271.2L368.2 270.3L366.9 269.5H364.1L362.7 268L360.9 264.2V262.3L361.7 261.7L361.8 260.4L360.1 258.5L359.2 256L356.5 251.9L351.7 250.6L344.3 243.5L343.9 241.1L346.7 233.5L346.3 231.6L347.5 230.5V229.2L344.7 227.7L341.7 227L338.3 228.2L337 225.9L337.6 224L336.9 221.6L328.3 213.2L326.1 211.7L323.6 205.8L322.4 200.4L323.8 196.7L322.3 195.9Z" fill="white" fill-opacity="0.5"/>
<path d="M169.499 138.1L207.499 139.7L210.899 142.9L212.599 143.1L214.699 145.1L216.499 145L218.299 143L219.799 143.6L220.799 142.9L221.499 143.4L222.399 143L223.099 143.4L223.999 143L224.999 143.5L226.399 142.9L228.399 143.5L228.999 144.6L235.099 146.8L236.299 148.1L237.199 150.7L238.999 151.4L240.499 151.2L240.999 152.1V154.4L241.599 156.1V157.5L242.899 161.2L245.099 165.5L245.299 169.2L248.099 174.2L248.499 180.3L249.799 181L249.599 183.9L250.399 187.2L249.699 189.4L251.499 193.8L252.799 195.1L252.499 196.5L254.599 200.2L258.499 206.5H226.099L182.399 205.3L146.399 203.3L147.799 181.2L114.699 178.8L118.399 134.6L169.499 138.1Z" fill="white" fill-opacity="0.5"/>
<path d="M124.5 279.9H123.7L115.8 379.2L84.0004 376.6L49.6004 373L49.3004 376L51.3004 378.2L20.5004 374.1L19.1004 384.3L3.40039 382.1L20.8004 258L73.4004 264.5L125.1 269.3L124.5 279.9Z" fill="white" fill-opacity="0.5"/>
<path d="M231.701 15.6003L230.601 18.4003L231.401 19.8003L231.101 24.9003L230.601 26.0003L233.301 35.1003L234.601 37.6003L235.301 51.6003L236.301 54.3003L235.901 60.1003L238.801 67.5003L239.101 73.3003L239.001 75.4003L209.501 75.0003L163.501 72.9003L124.301 70.0003L129.501 3.30029L174.001 6.70029L229.301 8.30029L231.701 15.6003Z" fill="white" fill-opacity="0.5"/>
<path d="M163.5 72.9L209.5 75L239 75.4L238.9 77.6L238 79.6L234.9 81.5L234.6 82.7L236.3 85.2L236.7 87L239.3 87.6L240.8 89.5L240.6 129L238.4 128.9L238.3 130.5L239.6 132L239.5 133.1L238.5 133.6L238.9 135.2L240.2 135.6L240.9 137.6L239.2 142.7L238.2 147L239.5 148.2L239.8 149.5L240.5 151.2L239 151.4L237.2 150.7L236.3 148.1L235.1 146.8L229 144.6L228.4 143.5L226.4 142.9L225 143.5L224 143L223.1 143.4L222.4 143L221.5 143.4L220.8 142.9L219.8 143.6L218.3 143L216.5 145L214.7 145.1L212.6 143.1L210.9 142.9L207.5 139.7L169.5 138.1L118.4 134.6L122.3 90.7L124.3 70L163.5 72.9Z" fill="white" fill-opacity="0.5"/>
<path d="M122.299 90.7L71.2992 85.4L13.9992 77.5L11.9992 88.2L3.49922 143L0.199219 164.9L32.2992 169.7L77.1992 175.4L114.699 178.8L118.399 134.6L122.299 90.7Z" fill="white" fill-opacity="0.5"/>
</svg>
