<svg width="197" height="209" viewBox="0 0 197 209" fill="none" xmlns="http://www.w3.org/2000/svg">
<path d="M142.501 142.9L142.901 141.8L139.701 129.5L139.601 129.2L124.701 132.6V133.3L123.801 133.6L123.301 132.9L112.801 135.3L115.601 151.6L117.401 153.1L113.901 156.5L115.601 158.7L121.001 154.2L122.701 152.9H123.501L125.901 149.8L127.301 149.9L130.201 148.8H132.301L137.601 146.1L140.401 145.2L141.401 144.2L142.901 144.7L142.501 142.9Z" fill="white" fill-opacity="0.5"/>
<path d="M144 92.7002L144.6 96.7002L147.8 98.7002L148.6 100.9L150.9 102.3L152.3 102L153.3 99.0002L152.5 96.1002L154.1 95.2002L154.6 92.4002L154 91.1002L157.3 89.2002L155.1 86.9002L156 84.5002L157.4 82.3002L157.9 85.5002L159.5 83.5002L160.8 84.4002L162 83.6002V81.9002L165.2 80.6002L165.5 77.7002L168 77.5002L170.7 73.8002V73.1002L169.8 72.6002L169.7 69.3002L170.3 68.2002L170.5 69.8002L171.5 69.3002L171.3 66.1002L170.4 66.4002L170.3 67.6002L169.1 66.2002L170 64.8002L170.6 64.9002L171.7 64.5002L172.2 67.3002L174.2 67.0002L177.1 67.7002V66.7002L176 65.5002L177.3 65.6002L177.4 63.3002L178 64.1002L178.3 66.0002L180.4 67.5002L180.6 66.5002L181.5 66.3002L181.2 65.5002L182 64.9002L181.9 63.3002L180.3 63.1002L178.3 63.8002L179.7 62.2002L180.4 61.4002L181.7 61.2002L182.1 62.5002L183.8 64.1002L184.2 62.0002L186.5 60.8002L185.6 59.5002L185.7 57.8002L186.8 58.3002H187.5L189.2 56.9002L189.6 54.6002L191.8 54.9002L191.9 54.2002L192.1 52.6002L192.6 54.0002L194.1 53.0002L196.4 48.9002L196.3 46.7002L194.9 44.7002L191.9 41.5002H190L189.2 43.7002L186.3 40.7002L186.6 39.9002V38.4002L185 33.9002L184.2 33.7002L183.5 34.1002H178.7L178.4 30.5002L170.3 4.50019L163 0.800194L160.1 0.700195L153.4 7.30019L150.7 6.30019L149.7 2.4002H147L140.1 21.9002L140.8 28.1002L139.1 30.5002L138.7 35.1002L140 38.8002L140.8 39.0002V40.6002L139.2 45.1002L137.7 46.5002L136.4 48.7002L136 56.5002L133.6 55.5002L132.1 55.9002L144 92.7002ZM178.6 68.0002L177.6 68.8002V70.1002L178.3 69.3002L179.2 70.1002L179.6 69.6002L180.7 69.8002L179.7 69.0002L180.1 68.2002L178.6 68.0002ZM176.9 70.6002L175.9 71.7002L176.4 72.1002L176.3 73.1002H177.4V71.3002L176.9 70.6002ZM173.9 69.0002L174.8 70.3002L175.8 70.8002L176.1 69.8002V68.0002L174.8 67.3002L174.4 68.5002L173.9 69.0002ZM172.9 74.0002L171.2 72.3002L172.8 69.9002L173.6 70.2002L173.8 71.3002L174.8 72.1002V73.2002L173.8 74.2002L172.9 74.0002Z" fill="white" fill-opacity="0.5"/>
<path d="M168.9 138.2H172.3L173.2 137.6L173.3 136.3L171.4 134.5L171.8 135.5L170.3 137H168L168.1 137.8L168.9 138.2ZM159.9 140L158.7 139.4L159.7 138.6L160.3 136.5L161.5 135.5L162.3 135.3L162.9 136.2L164 136.4L164.6 135.8L165.1 137.7L163.8 138L161 138.7L159.9 140ZM125 116.6L143.4 112.8L144.4 111.3L144.7 109.6L146.6 109L147.1 107.9L148.8 106.8L150.1 107.1L151.8 110.4L152.8 110.8L153.9 109.5L154.7 110.8V111.9L151.7 114.3L151.9 115.1L151 116.1L151.4 116.9L150.1 117.2L151 118.4L150.2 119.1L150.8 120.1L151.7 119.9L152 119.1L153.1 119.7H154.9L157.4 122.3L157.6 124.9L159.4 125L160.2 126.1L160.8 128.1L161.8 128.8H163.7L165.6 128.7L166.4 127.8L168 126.6L169.1 126.3L167.9 124.2L167.6 125.1L166.1 121.5H165.3L164.9 122.4L163.7 121.4L165 120.3L166.8 120.7L169.1 122.8L170.4 125.5L171.6 128.8L170.6 131.6V129.8L169.9 128.8L166.4 131.1L165.5 130.8L163.9 131.8L163.8 133L161.6 134.2L159.6 136.3L157.6 138.2H156.4L159.7 134.9L160.2 133L159.7 132.4L159.4 131.1L158.5 131L158.4 132.3L157.4 133.5H156.2L155.9 134.6L156.3 135.8L155.1 136.9L154 136.7L153.6 137.7L152.2 134.7L150.9 133.6L148.3 132.3L147.7 130.1H146.9L146.2 127.5L139.7 129.5L139.6 129.2L124.7 132.6V133.3L123.8 133.6L123.3 132.9L112.8 135.3L112.1 134.3L112.6 119.3L125 116.6Z" fill="white" fill-opacity="0.5"/>
<path d="M131.6 57.6004L130.3 57.7004L129.3 56.6004L127.4 58.0004L126.9 64.1004L128.1 66.4004L127 69.9004L129.1 72.7004L128.7 74.4004L128.8 75.7004L127.7 77.8004L126.3 78.2004L125.7 79.5004L123.6 80.5004L122.9 82.0004L124.3 85.4004L123.8 87.9004L124.3 89.4004L123.3 91.3004L123.7 93.2004L122.4 95.1004L122.6 97.3004L121.9 98.4004L122.6 102.9L123.3 104.4L122.8 107L123.7 108.8L123.5 111.3L123 112.6L122.9 114L125 116.6L143.4 112.8L144.4 111.3L144.7 109.6L146.6 109L147.1 107.9L148.8 106.8L150.1 107.1L150.9 102.3L148.6 100.9L147.8 98.7004L144.6 96.7004L144 92.7004L132.1 55.9004L131.6 57.6004Z" fill="white" fill-opacity="0.5"/>
<path d="M111.5 159.4L96.9 154.5L95.1 157L95.2 159.2L92.2 164.6L93.7 166.4L93 168.4L92 169.4L92.5 173L95.2 173.9L96.2 176.7L98.3 177.8L102.5 181L99.2 183.6L97.6 185.9L95.8 188.9L94.2 189.5L92.8 191.2L91.8 193.4L91.5 195.5L92.3 196.4L92.7 198.7L93.9 199.3L96.3 200.8L98.1 201.6L99.7 202.4L99.8 203.5L100.6 203.6L101.7 202.4L102.5 202.8L104.6 203L104.4 205.9L104.6 208.4L106.4 207.7L107.9 203.8L109.5 199L112.4 196.2L113 192.7L112.4 191.5L114.1 188.6V187.4L113.4 186.3L114.6 183.6L114.3 180L113.7 171.8L112.5 170.4V171.8L113 172.4H111.9L111.3 172L110 171.8L109.1 172.4L107.9 170.8L108.6 169.1V168.1L110.3 167.4L111.1 165.3L111.5 159.4Z" fill="white" fill-opacity="0.5"/>
<path d="M141.9 145.6L140.6 145.7L140.1 146.7L141.9 145.6ZM111.3 168.3L112 168.9L113.3 168.6L114.4 168.9L115.3 167.6H117.2L119.6 166.7L124.7 164.6L124.2 164.1L122.3 164.9L120.3 165.8L120.5 165L123.1 163.9L123.9 162.9L125.1 163L129.2 160.7V161.4L125 164.4L129.5 161.6L131.2 159.4L132.7 159.3L137.2 156.2L140.4 153.1L143.4 150.8L144.4 149.6L142.7 149.5L141.7 150.7L141.5 151.4L140.6 152.1L139.8 151L138.1 152L138 152.9L137.1 152.7L137.6 151.8L136.4 151.1L135.8 152L136.7 152.3L136.9 152.8L136.6 153.3L135.2 155.9H133.3L134.2 154.1L135.1 153.5L135.4 151.8L136.8 150.2L137.7 149.4L139.2 148.7L138 148.5L137.3 149.4H136.6L135.5 150.2L135.3 151.2L133.1 153.3L132.7 154.2L131.3 155.1L123.6 157L123.8 157.9L122.9 158.6L120.9 158.9L119.9 158.3L119.7 159.4L118.6 159L118.7 160L117.5 159.9L116.3 160.4L116.1 161.5H115.1L115.3 162.5H114.6L114.8 163.5L113 163.9L111.5 166.2L111.3 168.3ZM110.5 167.9L108.9 168.3V169.3L108.2 170.9L108.8 171.6L111.2 169.3L111.1 168.4L110.5 167.9ZM100.4 72.7L99.8 74.6L101.2 75.5L100.8 77L101.3 80.2L103.5 82.5L103.1 84.7L103.7 86.7L103.3 87.7L103 91.5L106.1 98.2L105.3 100L106.2 102.2L107.1 100.6L109 102.1L112 116.3L111.5 118.3L112.6 119.3L112.1 134.3L112.8 135.3L115.6 151.6L117.4 153.1L113.9 156.5L115.6 158.7L114.3 162L112.8 163.7L111.3 166L111.1 165.3L111.5 159.4L96.9 154.5L95.3 153.4L93.4 153.7L90.4 151.5L87.4 145.7H85.4L85 144.2L83.3 143.1L12.8 157L12 151L16.3 147.1L16.9 145.4L20.8 142.9L21.4 140.5L23.7 138.5L24.5 137.4L22.8 134.1L21.1 133.6L19.3 130.6L19.1 127.4L26.7 123.5L34.9 121.9H39.3L42.5 123.5L43.4 123.4L45.2 121.8L48.6 121.1H51.6L54.2 119.8L56.7 117.2L59.1 114.1L61 113.7L62.1 113.2L62.5 110L61.1 107.3L59.9 106.6L61.9 105.3L61.8 103.5H60.3L58 102.1L57.9 99L64.1 92.9L64.8 90.5L68.5 84.2L74.4 77.8L76.5 76.1L79 76.2L99.6 71L100.4 72.7Z" fill="white" fill-opacity="0.5"/>
<path d="M95.3004 153.4L93.4004 153.7L90.4004 151.5L87.4004 145.7H85.4004L85.0004 144.2L83.3004 143.1L12.8004 157L12.0004 151L7.80035 154.4L6.90039 154.5L4.20038 157.5L0.900391 159.2L5.80035 189.1L9.00037 208.8L26.4004 205.9L86.9004 194.1L88.1003 192L89.6003 190.9L91.2004 190.6L92.8004 191.2L94.2004 189.5L95.8004 188.9L97.6003 185.9L99.2004 183.6L102.5 181L98.3004 177.8L96.2004 176.7L95.2004 173.9L92.5004 173L92.0004 169.4L93.0004 168.4L93.7004 166.4L92.2004 164.6L95.2004 159.2L95.1003 157L96.9004 154.5L95.3004 153.4Z" fill="white" fill-opacity="0.5"/>
<path d="M152.199 134.7L150.899 133.6L148.299 132.3L147.699 130.1H146.899L146.199 127.5L139.699 129.5L142.899 141.8L142.499 142.9L142.899 144.7L148.499 141.1L148.599 138.1L147.799 137.3L148.199 136.7L148.099 135.4L147.199 134.7L148.399 134.3L147.499 132.7L149.299 133.4L149.599 134.8L150.299 136L148.899 135.2L149.999 136.9L149.699 138.1L149.099 137V139.5L149.699 138.6L150.099 139.5L151.399 138L151.199 135.5L152.599 138.6L153.599 137.7L152.199 134.7ZM147.499 146.9H148.399L148.899 146.3L148.099 145L147.399 145.7L147.499 146.9Z" fill="white" fill-opacity="0.5"/>
<path d="M128.1 66.4001L127 69.9001L129.1 72.7001L128.7 74.4001L128.8 75.7001L127.7 77.8001L126.3 78.2001L125.7 79.5001L123.6 80.5001L122.9 82.0001L124.3 85.4001L123.8 87.9001L124.3 89.4001L123.3 91.3001L123.7 93.2001L122.4 95.1001L122.6 97.3001L121.9 98.4001L122.6 102.9L123.3 104.4L122.8 107L123.7 108.8L123.5 111.3L123 112.6L122.9 114L125 116.6L112.6 119.3L111.5 118.3L112 116.3L109 102.1L107.1 100.6L106.2 102.2L105.3 100L106.1 98.2001L103 91.5001L103.3 87.7001L103.7 86.7001L103.1 84.7001L103.5 82.5001L101.3 80.2001L100.8 77.0001L101.2 75.5001L99.7996 74.6001L100.4 72.7001L99.5996 71.0001L126.9 64.1001L128.1 66.4001Z" fill="white" fill-opacity="0.5"/>
</svg>
