<svg width="337" height="191" viewBox="0 0 337 191" fill="none" xmlns="http://www.w3.org/2000/svg">
<path d="M139.3 177.9L114.9 172.5L123.4 135.2L126.3 129.4L126.7 127.3L127.5 126.4L126.6 124.4L123.7 123.2L123.9 119L127.9 113.2L130.4 112.4L132 110.1L131.9 108.5L133.7 106.9L136.9 101.4L141.1 96.5998L140.6 93.3998L137.1 90.2998L135.5 86.6998L136.6 82.3998L135.9 78.3998L148.6 22.2998L162.8 25.2998L158 47.2998L161.7 54.6998L160.1 59.4998L163.7 64.2998L165.6 64.9998L169.5 73.2998V75.3998L171.8 78.3998H172.7L174.1 80.4998H177.3V82.0998L170.2 99.0998L169.7 103.2L171.1 103.7L172.7 106.3L175.5 104.9L179.1 102.5L181 104.4L181.5 106.9L181 110.1L183.5 119.8L186.1 123.3L188.4 124.7L188.8 127.7V131.8L191.1 134.1L192.7 131.8L199.6 133.4L201.7 132.2L210.7 133.9L213.5 130.6L215.3 130L216.5 131.8L218.1 135.9L219 136L210.5 190.8L162.6 182.6L139.3 177.9Z" fill="white" fill-opacity="0.5"/>
<path d="M221 125.3L278.3 133.2L329.3 138.5L331.3 117.8L336.5 51.0998L283 45.4998L228.7 37.7998L162.8 25.2998L158 47.2998L161.7 54.6998L160.1 59.4998L163.7 64.2998L165.6 64.9998L169.5 73.2998V75.3998L171.8 78.3998H172.7L174.1 80.4998H177.3V82.0998L170.2 99.0998L169.7 103.2L171.1 103.7L172.7 106.3L175.5 104.9L179.1 102.5L181 104.4L181.5 106.9L181 110.1L183.5 119.8L186.1 123.3L188.4 124.7L188.8 127.7V131.8L191.1 134.1L192.7 131.8L199.6 133.4L201.7 132.2L210.7 133.9L213.5 130.6L215.3 130L216.5 131.8L218.1 135.9L219 136L221 125.3Z" fill="white" fill-opacity="0.5"/>
<path d="M67.9 161.3L114.9 172.5L123.4 135.2L126.3 129.4L126.7 127.3L127.5 126.4L126.6 124.4L123.7 123.2L123.9 119L127.9 113.2L130.4 112.4L132 110.1L131.9 108.5L133.7 106.9L136.9 101.4L141.1 96.5998L140.6 93.3998L137.1 90.2998L135.5 86.6998L105.2 79.3998L102.4 80.3998L97 79.4998L95.2 78.5998L93.7 79.7998L90.4 79.3998L85.9 79.8998L85 80.5998L80.8 80.1998L80 78.5998L78.8 78.3998L74.4 79.6998L72.8 78.5998L70.6 79.3998L70.4 77.5998L68.1 76.3998L66.6 76.1998L65.6 75.0998L62.6 75.3998L61.4 74.5998H60.2L59 75.4998L53.5 76.1998L46.9 71.9998L48 66.3998L47.6 62.2998L44.4 58.5998L40.7 58.6998L40.3 57.5998L40.7 56.3998L40 55.5998L39 55.6998L37.9 56.9998L36.4 56.7998L35.9 55.6998L34.9 55.5998L34.2 56.1998L32.2 54.2998V58.5998L30.9 59.8998L29.8 63.3998L29.7 65.6998L25.2 77.9998L12 109.3L8.8 113.9L7.2 113.8L7.3 115.9L2.1 123L1.8 126.3L2.8 127.6L2.9 130L1.7 131.1L0.5 134.1L0.6 139.8L1.8 142.7L67.9 161.3Z" fill="white" fill-opacity="0.5"/>
<path d="M135.9 78.4L136.6 82.4L135.5 86.7L105.2 79.4L102.4 80.4L97.0004 79.5L95.2004 78.6L93.7004 79.8L90.4004 79.4L85.9004 79.9L85.0004 80.6L80.8004 80.2L80.0004 78.6L78.8004 78.4L74.4004 79.7L72.8004 78.6L70.6004 79.4L70.4004 77.6L68.1004 76.4L66.6004 76.2L65.6004 75.1L62.6004 75.4L61.4004 74.6H60.2004L59.0004 75.5L53.5004 76.2L46.9004 72L48.0004 66.4L47.6004 62.3L44.4004 58.6L40.7004 58.7L40.3004 57.6L40.7004 56.4L40.0004 55.6L39.0004 55.7L36.9004 54.2L35.7004 54.6L33.7004 54.5L33.0004 53L31.4004 52.7L33.9004 45.2L33.2004 51.2L33.7004 51.7V49.7L34.5004 49.5L35.6004 51.8L35.1004 49.6L36.3004 45.4L38.1004 45.8L37.0004 43.8L36.0004 44.1L34.5004 43.7L34.7004 39.5L34.9004 41L35.8004 41.5L36.4004 39.9H39.6004L37.4004 38.7L35.7004 36.8L34.3004 38.4L35.5004 35.3L35.2004 30.7L35.0004 27.1L35.9004 21L35.4004 19L34.0004 16.9L34.1004 12.9L34.5004 10.2L36.5004 7.9L35.8004 6.5L36.0004 5.9L36.9004 6L44.7004 13.6L49.4004 15.5L54.5004 18L57.7004 17.9L57.9004 20.9L58.9004 19.3H59.6004L60.2004 22L60.7004 19.4L62.1004 19.2L62.6004 19.9L61.5004 20.5L61.6004 22.1L62.3004 20.6H63.4004L63.0004 23.2L61.9004 22.4L62.3004 23.8L62.2004 25.3L61.4004 26L58.9004 28.9L60.1004 25.5L58.5004 25.9L58.1004 28L54.3004 30.8L53.9004 31.8L51.8004 34L51.7004 35H53.9004L56.3004 34.8L56.8004 33.9L52.9004 34.4V33.8L55.5004 31L57.3004 30.2L59.2004 30L60.2004 28.4L63.2004 26.1V24.7H64.3004L64.4004 28.7H62.9004L62.3004 29.5L61.2004 28.6L61.5004 29.7V31.4L60.8004 32.1L60.5004 30.5L59.7004 31.3L60.4004 31.9L59.5004 33H60.8004L61.5004 32.5L61.6004 34.5L60.6004 36.4L59.7004 37.4L59.6004 39.2L58.6004 39L58.4004 37.6L59.3004 36.5L58.5004 36L57.7004 36.7L57.0004 38.9L56.2004 39.8L56.1004 37.8L56.9004 36.7L56.7004 35.6L55.5004 36.8L55.6004 39L55.0004 39.4L52.9004 39L51.6004 40.2L53.8004 39.6L53.6004 41.8L54.6004 40L55.0004 41.4L55.5004 40.4L56.2004 42.2H56.9004L57.6004 41.4L58.2004 41.3L60.2004 39.4L60.4004 38.2L61.2004 38.8L61.5004 39.7L62.2004 39.4L62.3004 38.2H63.6004L63.8004 35.3L63.7004 32.6L64.6004 32.9L63.9004 30.8L65.3004 30L65.5004 27.6L67.8004 25.4L68.8004 25.5L69.1004 24.1L67.9004 22.7L67.8004 19.2L67.0004 20.1L67.7004 23L67.1004 23.1L66.5004 21.2L65.9004 20.7L66.2004 18.4L68.0004 18.3L68.3004 19L68.6004 17.4L67.0004 15.7L66.4004 14.1L66.2004 16.1L67.1004 17.2L66.4004 17.6L65.4004 16.8L63.6004 18.1L65.1004 18.6L65.3004 21L65.0004 22.8L65.9004 21.5L67.3004 23.8L66.9004 25.7H65.4004V24.5L63.9004 23.3L64.4004 20.3L62.5004 17.7L65.2004 14.7L65.8004 10.6H66.7004L68.1004 13.8V11.2L69.3004 11.5V8.2L68.4004 7.4L67.2004 9.9L66.2004 6.9L67.5004 6.8L66.0004 1.9L67.9004 1.3L93.3004 8.8L125 16.8L148.6 22.3L135.9 78.4ZM57.2004 39H57.7004L57.8004 39.8L57.3004 40.1L57.4004 40.7L56.7004 41.1L56.5004 40.2L57.0004 39.8L57.2004 39ZM62.2004 34.7L61.0004 36.6L60.9004 37.4L61.3004 37.6L61.8004 37L62.9004 37.1L62.2004 34.7ZM61.8004 13.1L62.3004 13.7L63.6004 13.4L63.8004 12.4L65.0004 10.6L64.0004 10.2L63.3004 11.8L63.2004 10.2L62.1004 10.4L61.4004 11.8L61.8004 13.1ZM65.0004 7.6L65.7004 9.1L64.8004 9.3L64.0004 9.7L63.8004 7.3L65.0004 7.6ZM62.3004 6L61.2004 5.8L61.7004 7.2L62.3004 6ZM61.3004 8.5L62.1004 8.9L61.7004 10L63.4004 9.5L63.2004 7.3L62.3004 7.1L61.3004 8.5ZM58.6004 8.1L58.9004 10.8L60.5004 12.1L61.1004 10.2L60.0004 8L58.6004 8.1ZM60.5004 7L59.4004 6L58.5004 6.1L60.3004 7.6L60.5004 7ZM63.7004 0H62.5004V0.8L63.7004 1.4V0ZM62.8004 32.5L63.2004 29.8H62.1004L61.9004 31.7L62.8004 32.5Z" fill="white" fill-opacity="0.5"/>
</svg>
