<svg width="563" height="355" viewBox="0 0 563 355" fill="none" xmlns="http://www.w3.org/2000/svg">
<path d="M361 242.4L361.4 235.1L360.5 233.9L358.8 233.2L356.3 230.4L356.8 227.5L405.6 222.4L404.9 220.2L403.4 218.7L402.9 217.3L403.5 211L401.1 205.3L401.6 202.7L401.9 199L404.1 195.2L403.9 194.1L402.2 193.1V189.9L400.4 188L397.5 181.9L384.6 136.1L338.9 140.1L340.2 142.1L338.9 209.1L343.3 242.3L344.2 241.8L345.5 241.9L346.1 242.3L346.9 242.2L348.9 238.4V236.1L350 235L351.4 235.5L354.8 241.9V242.8L351.5 245L355 244.6L359.9 243L361 242.4Z" fill="white" fill-opacity="0.5"/>
<path d="M302.2 142L303.1 139.8L304.3 140.3L305 139.3L304.2 138.6L304.5 137.1L303.4 136.2L304 135.2L303.9 133.7L302.8 133.6L303.6 132.8L304.9 133.6L305.2 132.2L304.8 131.1L304.9 130.4L306.9 131L306.5 129.5L308.1 128.2L307.6 127.3L306.5 127.4L305.9 126.5L306.8 125.6L308.4 125.4L308.9 124.6L310.3 124.4L310.2 123.6L309.3 122.7V122.2H310.8L311.2 121.5L309.8 120.5L309.7 119.9L298.5 120.7L301.3 115.6L303 114.1V111.9L301.4 109.4L261.6 111.4L222.5 112.1L226.6 136.5L225.9 175.5L228.5 177.8L231.3 176.5L234.5 177.3L234.7 189.2L287 187.9L288.2 186.4L288.7 183.4L287.2 181.1L286.7 178.9L287.6 178.2V177.4L285.9 176.3L285.8 175.6L287.4 174.7L286.2 173.6L287.9 166.5L291.3 164.9V164.1L290.2 162.7L293.1 157.3H295L296.5 156.1L296.2 150.9L299.3 146.4L301.1 145.8L300.6 142.7L302.2 142Z" fill="white" fill-opacity="0.5"/>
<path d="M469.701 220.1L465.701 219.4L464.001 218.5L461.801 219.9V222.4L463.201 224.5L462.701 228.8L460.601 229.4L459.601 228.3L459.001 225.1L408.901 228.4L405.601 222.4L356.801 227.5L356.301 230.4L358.801 233.2L360.501 233.9L361.401 235.1L361.001 242.4L359.901 243L360.401 243.4L361.401 243.1L362.101 242.3L372.601 239.6L381.801 239.1L389.901 241L398.401 246L400.801 246.8L403.001 248.8L402.901 251.5H405.301L407.201 250.5L409.701 250.6L411.701 249.8L414.601 247.8L417.701 244.9L418.801 244.5L419.401 245H420.801L421.301 244.2L420.801 243L420.201 242.4L420.401 241.6L422.401 240.5L427.401 240.1L428.201 241.1L429.201 241.2L431.501 242.2L434.501 244L435.701 245.7L436.801 246.9L439.601 248.3V250.7L442.401 252.6L443.401 252.7L445.001 254.1L445.701 255.7L446.701 255.9L447.501 258L448.201 258.6L449.201 257.5L452.101 257.6L452.601 259L453.701 259.9V261.2L456.601 263.4L456.801 273L455.001 278.8L456.001 280L455.801 283.4L455.001 284.8L455.701 286L458.001 288.3L458.301 289.8L459.101 290.8L458.701 288.9L460.001 288.3L460.801 284.7L457.801 283.5L457.901 282.9L460.501 282.5L461.401 285.1L462.501 285.7L462.601 283.7L463.701 284L464.301 284.8L464.201 285.5L461.301 289.7L461.101 290.8L459.401 292.7V293.8L463.101 297.6L468.401 305.5L470.201 307.6V309.4L473.001 314L475.301 314.6L476.001 313.4L473.901 313.7L470.901 309.2L471.101 307.8L472.601 307V305.5L472.001 304.2L472.901 303.3L473.301 304.2L474.001 304.7V308.7L472.801 308.1L472.001 309L473.401 310.6L474.401 313.2L475.601 312.6L477.901 313.8L480.001 316L481.601 321.1L484.701 325.9L485.501 324.6L488.301 324.1L491.501 325.4L491.801 327.1L495.101 330.9L495.201 332L497.401 334.7L496.701 335.2V337.9L499.401 339.3H500.901L503.601 337.5L505.101 337.8L506.201 338.2L508.501 336.5L508.701 335.8L509.901 336.1L512.301 334.4L513.601 332.1L512.901 328.9L512.701 327.6L513.801 323.6L514.401 323.4L515.001 325L515.801 323.2L515.001 316L514.601 305.5L513.601 298.7L512.901 297L506.301 285.9L501.101 276.8L498.901 273.5L497.601 269.9L497.401 266.5L498.301 266.2V265.3L497.201 263.1L493.201 259.1L485.601 249.4L479.901 239L475.601 228.3L475.001 224.6L473.801 223.6L473.301 219.8L469.701 220.1ZM478.901 354.6L480.601 354.5L479.901 353.5L478.901 354.6ZM486.201 353.5V352.8L487.801 352.6L491.501 349.3L493.001 348.7L495.401 347.8L495.701 349.1L497.401 349.9L494.801 351.1H492.401L488.501 353.6L486.201 353.5ZM503.401 345.9L500.401 347.3L499.401 348.6L500.501 348.7L503.401 345.9ZM507.201 343L506.101 343.3L504.701 345.3L505.801 345.1L507.301 343.5L507.201 343ZM515.501 327.3L513.801 332.9L513.001 333.9L512.001 336.5L510.801 338.1L510.101 339.8L508.201 342V342.9L510.901 340.1L513.301 336.6L513.901 334.6L516.001 329.7L515.501 327.3Z" fill="white" fill-opacity="0.5"/>
<path d="M479.8 189.1V190.5L475.6 196.7L474.4 196.9L475.9 197.4V199.4L475 200.5L474.4 206.5L472.1 212.7L472.6 214.7L473.3 219.8L469.7 220.1L465.7 219.4L464 218.5L461.8 219.9V222.4L463.2 224.5L462.7 228.8L460.6 229.4L459.6 228.3L459 225.1L408.9 228.4L405.6 222.4L404.9 220.2L403.4 218.7L402.9 217.3L403.5 211L401.1 205.3L401.6 202.7L401.9 199L404.1 195.2L403.9 194.1L402.2 193.1V189.9L400.4 188L397.5 181.9L384.6 136.1L407.5 133.2L428.9 130.2L428.8 132.1L426.9 133.1L425.5 136.3L425.7 137.6L431.8 141.4L434.4 141.1L437.5 145.1L437.9 146.8L442.1 151.9L444.7 153.6L446.1 153.8L448.3 155.4L449.4 157.6L451.4 159.2L453.2 159.7L455.9 162.4L456 163.8L458.6 166.6L463.6 168.9L467.2 175.6L467.5 178.3L471.4 180.4L473.9 185.2L474.7 188.3L478.9 188.7L479.8 189.1Z" fill="white" fill-opacity="0.5"/>
<path d="M410.1 97.5002L389.6 98.9002L384.4 99.7002L367 100.7L364.4 101.5L341.8 103.5L341.1 102.9H337.4L338.6 106.1L338 107L314.7 108.5L315.7 105.8L317.1 106.7L317.8 106.3L319 102.2L318 101.2L319 99.2002L319.2 98.3002L317.9 97.5002L317.6 95.7002L321.6 92.0002L328.5 95.0002L330 94.7002L330.4 92.3002L328.7 90.5002L329.1 87.2002L330.1 86.7002L331.3 87.3002L331.9 86.1002L335.6 85.5002L335.7 84.6002L334.2 82.4002L334.1 81.3002L336.3 78.6002V77.7002L337.4 78.5002L338 77.5002L337.3 75.8002L341.9 75.3002L342.1 76.5002L343.2 76.7002L343.6 75.8002L343 74.5002L343.3 73.7002L344.6 74.5002L346.3 74.1002L348 74.7002L351.4 76.8002L353.2 74.0002L356.7 71.8002L359.7 75.1002L361.3 73.0002L361.6 70.3002L365.4 68.0002L365.6 69.3002L367.5 70.5002L370.5 70.3002L371.7 69.6002L371.8 66.2002L374.3 62.5002L378.9 58.1002L378.8 56.4002L380 52.6002L382.2 53.6002L388.9 49.1002L388.5 47.4002L387 45.3002L388 43.4002L389.3 43.9002L391.5 44.0002L393.4 43.2002L396.3 44.4002L398.5 47.8002V48.8002L402.6 49.5002L404.9 49.3002L406.8 51.4002L409 51.6002V50.6002L410.9 49.8002L413.9 50.6002L415.1 51.4002L416.4 50.7002H417.3L417.9 49.0002L421.3 47.2002L421.8 48.0002L422.6 50.9002L426.1 52.3002L427.3 54.4002L427.2 55.5002L427.8 56.5002L427.2 60.1002L429.1 61.7002L429.9 62.8002L430.9 63.4002L430.8 64.3002L435.2 69.9002H436.6L438.1 71.7002L439.3 72.0002L440.7 71.9002L435.8 78.5002L432.9 79.5002L429.9 82.5002L429.5 84.7002L427.4 86.0002L427.3 87.7002L425.9 89.1002L424.1 89.6002L423.6 91.5002L422.6 91.9002L415.7 96.1002L410.1 97.5002ZM312.1 108.8L311.4 108.1L311.6 107.1H312.7L313.4 107.8L313.1 108.8H312.1Z" fill="white" fill-opacity="0.5"/>
<path d="M320.499 247.8L319.299 246L319.599 244.7L314.799 237.9L315.699 233.3L316.699 231.9L316.799 230.5L280.799 232.5L282.499 220.6L284.899 215.8L290.899 207.4L289.099 204.9H291.099V201.6L288.699 199.1L289.199 197.4L287.999 196.4L286.399 189.3L286.999 187.9L234.699 189.2L235.199 209.1L235.899 212.5L238.499 215.3L239.199 220.7L242.999 225.3L243.799 229.6H244.799L244.699 236.9L241.399 243.3L242.699 245.6L241.399 247.1L242.099 250.1L241.999 254.4L239.799 257.9L239.699 258.7L237.999 259.9L238.999 261.7L240.199 262.8L241.799 261.5L247.099 260.6L253.199 260.5L262.799 264.3L270.799 265.3L272.299 263.9L274.099 263.7L278.899 265.9L280.499 265.5L281.599 264L277.399 262.2L275.199 263.2L274.099 263L272.699 261L275.999 258.8L277.599 258.7V260.4L279.099 260.3L282.499 260L282.899 262.3L283.999 262.7L284.599 264.6L289.399 265.6L291.099 267.2V267.9H289.899L288.399 269.6L290.099 270.8L295.499 271.8L298.199 274.6L302.599 273.6L298.899 273.8L298.799 273.2L301.599 272.5L301.799 270.7L302.999 270.4V269L304.099 269.1V270.7L306.599 270.8L307.399 268.9L308.299 269.2L308.499 271.7L309.699 271.9L307.899 273.9L310.499 273L312.499 271.9L315.399 268.6H314.699L313.399 269.8L312.999 269.7L312.499 268.9L313.399 267.7V265.4L314.499 264.6L315.199 265.3L316.199 264.5L317.199 264.4L317.799 265.7L317.199 267.6H319.599L324.699 269.3L325.199 270.6L326.799 272L329.599 272.1L330.899 272.8L332.699 271.8L333.599 270.1V268.4H332.199L330.999 267L329.899 265.9L326.699 265L324.099 265.2L319.899 262.8V260.5L321.199 259.5L323.599 260.1L320.499 258.5L320.699 257.7H324.299L326.899 254.2L324.299 252.4L325.099 250.9L323.899 250.1H323.099L321.099 252.2V254.3L320.499 255L319.399 254.9L317.799 253.5H316.499V252L317.099 251.3L317.899 252L319.599 250.4L320.299 248.8L321.099 248.5L320.499 247.8ZM310.199 245.1L312.099 246.1L312.899 247.2L315.399 247.3L316.899 248.1L317.099 249.5L316.699 250.1L315.799 248.6L314.399 249.8L313.499 251.2L310.699 252L309.099 252.1L305.399 251.1L305.499 249.4L307.499 247.4L308.599 245L310.199 245.1ZM305.499 246.3V247.4L303.699 249.4H302.499V247.2L304.099 245.7L305.499 246.3Z" fill="white" fill-opacity="0.5"/>
<path d="M540.9 44.3001V42.6001H540.1V44.4001L540.9 44.3001ZM552.7 40.4001L553.9 38.2001L554 35.7001L553.4 35.1001L552.7 36.0001L552.5 38.1001L551.7 39.5001L551.4 40.6001L546.8 42.2001L546.1 43.0001L544.8 43.2001L544.4 44.1001L543.1 44.7001L542.8 42.2001L543.2 41.5001L542.4 41.0001L542.6 39.5001L541 40.5001V38.5001L542.2 38.2001L540.3 37.8001L539.6 37.0001L540 35.7001L539.2 35.1001L538.5 36.7001L539 37.5001L538.3 38.1001L537.2 38.6001L535.2 37.6001L535 36.4001L534 35.3001L532.6 33.6001L534.1 32.8001L533.1 32.2001V31.3001L533.7 30.3001L535.4 30.0001L534 29.4001L533.9 28.7001L532.6 28.6001L532.2 29.7001L531.6 30.0001L531.7 26.6001L532.7 25.6001L533.5 26.3001L533.6 24.7001L532.6 23.8001L531.7 24.9001L530.7 26.3001L530.1 25.3001L530.3 22.9001L531.2 21.9001L532.1 22.8001L533.3 22.1001L532.9 20.4001L531.9 21.4001L531 19.3001L530.8 17.6001L531.9 15.2001L533 13.8001L534.4 13.6001L533.9 12.8001L534.4 12.2001L534.1 11.5001L534.3 9.40009L532.8 9.80009L532 10.9001L533 12.2001L530.4 15.8001L529.5 15.4001L528.8 16.3001L528.2 18.5001L526.4 19.0001L527.7 19.6001L529 20.9001L528.8 21.6001L529.7 22.8001L528.6 23.8001L529.1 24.1001L528.6 25.4001V27.5001L528.1 28.8001L529 29.9001L529.7 33.3001L531 34.7001L532.6 36.1001L533 38.9001L534.6 40.9001L535 42.3001V43.3001H534.3L532.8 42.1001L532.4 42.3001L531.2 42.1001L529.5 40.7001L528.1 40.4001L527.1 40.9001L525.9 40.6001L525.5 40.8001L523.8 40.0001L522.8 39.0001L521.8 37.7001L521.2 37.5001L520.4 38.2001L518.8 39.5001L517.7 38.7001L517.3 36.4001L518.1 34.3001L517.8 33.8001L518.1 33.4001L517.4 32.4001L518.4 32.3001L519.4 31.4001L519.8 29.6001L521.5 27.0001L518.9 25.2001L517.9 26.9001L517.3 26.3001H516.3L515.7 26.2001L515.3 25.8001L515.4 25.3001L513.7 24.7001L512.9 25.0001L511.7 24.9001L511 24.2001L510.5 24.0001L510.3 23.3001L510.9 22.5001V21.6001L509.7 21.4001L508.7 20.5001L507.8 20.6001L506.2 20.3001L505.3 19.9001L505.5 18.3001L504.5 17.8001L504.3 17.1001H503.6L502.8 15.9001L503 14.9001L500.4 15.3001L498.2 13.7001L496.8 14.0001L495.9 15.4001H494.6L492.9 18.3001L489.6 18.7001L487.7 17.7001L485.1 21.5001L482.9 21.2001L479.8 25.1001L478.9 26.7001L477.1 28.3001L475.4 16.9001L535.9 5.1001L543.5 32.2001L554.4 29.9001V35.2001L554.3 38.3001L553.3 40.1001L552.7 40.4001ZM539.3 38.6001L538 39.5001L538.8 41.3001L540.5 42.1001L540.1 40.5001L539.3 38.6001Z" fill="white" fill-opacity="0.5"/>
<path d="M341.801 243.6L336.801 243.7L334.401 242.2L326.501 244.7L325.601 244L325.101 244.2L325.001 245.8L324.401 245.9L321.801 248.6L321.101 248.5L320.501 247.8L319.301 246L319.601 244.7L314.801 237.9L315.701 233.3L316.701 231.9L316.801 230.5L280.801 232.5L282.501 220.6L284.901 215.8L290.901 207.4L289.101 204.9H291.101V201.6L288.701 199.1L289.201 197.4L288.001 196.4L286.401 189.3L287.001 187.9L288.201 186.4L288.701 183.4L287.201 181.1L286.701 178.9L287.601 178.2V177.4L285.901 176.3L285.801 175.6L287.401 174.7L286.201 173.6L287.901 166.5L291.301 164.9V164.1L290.201 162.7L293.101 157.3H295.001L296.501 156.1L296.201 150.9L299.301 146.4L301.101 145.8L300.601 142.7L338.901 140.1L340.201 142.1L338.901 209.1L343.301 242.3L341.801 243.6Z" fill="white" fill-opacity="0.5"/>
<path d="M547 75.1002L517.9 81.2002L478.5 88.5002L449.1 92.0002V97.2002L447.6 97.1002L446.2 98.3002L443.8 103.5L441.2 102.4L437.7 104.9L437 107L435.5 108.2L434.7 107.4L434.6 105.9L433.8 105.7L429.8 109L429.2 112.4L424.5 114.8L424 116L420.8 118.6L417.2 119.1L412.6 122.1L411.8 126.2L410.5 127.1L409 127L407.6 128.3L407.5 133.2L428.9 130.2L433.3 128.3L434.6 128.2L441.9 123.9L465.1 121.7L465.5 122.2L465.3 123.6L466 123.9L467.2 122.4L470.5 125.4L470.6 128L490.3 125.2L514.8 142.3L518.8 140.1L521.8 139.4H523.5L524.6 140.5L525.4 138.5L526 133.5L527.7 129.6L533.1 123.5L537.2 120L542.6 117.7L545.1 117.3L546.4 117.7L547.1 118.8L550.4 112.2L553.7 106.9L553 106.6L548.6 113.4L548.1 112.6L550.1 110.4L549.7 108.9L547.7 108.4L548.7 109.7L547.5 109.8L546.3 108L545.1 110L543.5 110.2L544.5 107.5L545.2 105.8L545 102.9L542.8 102.8L543.7 101.9L544.8 102.2L547.5 102.3L548.3 101.8H550.6L552.6 99.9002L552.8 96.7002L554.1 95.3002L555.3 95.1002L556.6 94.1002L556.1 90.4002L553.9 86.6002L551.2 86.4002L550.3 88.0002L549.8 87.0002L547.1 87.2002L545.9 87.6002L544 88.8002L543.7 88.4002H542.8L541 89.6002L538.4 90.1002V88.8002L539.2 87.8002L540.2 88.5002H541.2L542.9 86.4002L546.6 84.7002L548.6 82.5002H551L551.8 83.8002L553.5 84.6002L553 83.1002L552.7 81.5002L549.9 78.4002L549.6 77.0002L549.2 78.0002L548.3 76.7002L547 75.1002ZM554 106.1L556.7 103.6L561.3 100.3V96.6002L560.9 93.5002L559.2 89.3002L560.7 90.7002L561.7 93.9002L562.1 101.5L560.4 101.9L557.3 104.3L554.1 107.5L554 106.1ZM555.9 86.8002L555 86.6002V87.6002L557.5 89.8002L557.3 88.4002L555.9 86.8002ZM558.8 88.9002L557.4 86.1002L555.2 82.7002L552.8 79.7002L550.6 75.4002L549.8 74.7002L552 79.0002L552.3 80.3002L555.7 85.8002L557.5 87.9002L558.8 88.9002Z" fill="white" fill-opacity="0.5"/>
<path d="M219.5 173.6L214.9 169.8L212.7 168.9L212.2 170.5L207.1 170.8L206.5 169.3L201.5 171.8L199.9 171.1L196.2 171.4L195.6 173.1L192 174L190.7 172.8L189.5 172.9L187.5 171.1L185.4 171.8L183.4 171.3L181.6 169.3L179.1 173.5L177.9 174.3L176.9 172.5L177.2 170.5L176 169.8L173.7 172.3L172 171.1L171.9 169.6L170.6 170.1L168 168.4L165 171L162.7 169.9L163.4 167.8L161.1 167.9L159.2 164.9L155.7 163.8L153.7 166.1L151.4 163.9L150 164.3L148 164.4L144.5 162.5L142.2 162.6L141 161.9L140.5 159L138.2 157.3L137.1 158.8L135.7 157.8L134.5 157.4L133.4 158.4L131.9 158.1L129.4 155.1L126.7 153.8L128.1 111.1L75.5 107.9L76.1 97.3003L92.6 98.3003L160.3 101.2L222.3 101.3L222.5 112.1L226.6 136.5L225.9 175.5L219.5 173.6Z" fill="white" fill-opacity="0.5"/>
<path d="M490.3 125.2L470.6 128L470.5 125.4L467.2 122.4L466 123.9L465.3 123.6L465.5 122.2L465.1 121.7L441.9 123.9L434.6 128.2L433.3 128.3L428.9 130.2L428.8 132.1L426.9 133.1L425.5 136.3L425.7 137.6L431.8 141.4L434.4 141.1L437.5 145.1L437.9 146.8L442.1 151.9L444.7 153.6L446.1 153.8L448.3 155.4L449.4 157.6L451.4 159.2L453.2 159.7L455.9 162.4L456 163.8L458.6 166.6L463.6 168.9L467.2 175.6L467.5 178.3L471.4 180.4L473.9 185.2L474.7 188.3L478.9 188.7L479.7 187.2H480.3L482.1 185.7L482.6 183.7L485.8 181.6L486.1 179.2L484.9 178.3L485.7 177.6L486.5 178L487.8 177.6L489.6 175.5L493.4 173.7L495 171.3L495.1 170.6L499.9 166.2L499.8 165.7L498.9 164.9L500 163.4H500.8L501.2 163.9L501.9 163.1H503.2L503.8 161.6L506.1 159.5L505.8 154.1L506.6 151.8L510.2 145.6L512.6 143.4L514.8 142.3L490.3 125.2Z" fill="white" fill-opacity="0.5"/>
<path d="M338.9 140.1L384.6 136.1L407.5 133.2L407.6 128.3L409 127L410.5 127.1L411.8 126.2L412.6 122.1L417.2 119.1L420.8 118.6L424 116L424.5 114.8L429.2 112.4L429.8 109L433.8 105.7L434.6 105.9L434.7 107.4L435.5 108.2L437 107L437.7 104.9L441.2 102.4L443.8 103.5L446.2 98.3003L447.6 97.1003L449.1 97.2003V92.0003L449.4 91.3003L444.8 91.8003L444.6 92.8003L415.7 96.1003L410.1 97.5003L389.6 98.9003L384.4 99.7003L367 100.7L364.4 101.5L341.8 103.5L341.1 102.9H337.4L338.6 106.1L338 107L314.7 108.5L313.9 109.5L313.1 108.8H312.1V110.1L312.7 111.1L312.6 112.1L311.2 112.6L312.6 114.1L311.8 114.8L310.1 114.6L310.7 115.6L311.9 116.7V117.4L310.7 117.9L309.7 119.9L309.8 120.5L311.2 121.5L310.8 122.2H309.3V122.7L310.2 123.6L310.3 124.4L308.9 124.6L308.4 125.4L306.8 125.6L305.9 126.5L306.5 127.4L307.6 127.3L308.1 128.2L306.5 129.5L306.9 131L304.9 130.4L304.8 131.1L305.2 132.2L304.9 133.6L303.6 132.8L302.8 133.6L303.9 133.7L304 135.2L303.4 136.2L304.5 137.1L304.2 138.6L305 139.3L304.3 140.3L303.1 139.8L302.2 142L300.6 142.7L338.9 140.1Z" fill="white" fill-opacity="0.5"/>
<path d="M0.300781 204L0.6008 201L35.0008 204.6L66.8008 207.2L74.7008 107.9H75.5008L128.101 111.1L126.701 153.8L129.401 155.1L131.901 158.1L133.401 158.4L134.501 157.4L135.701 157.8L137.101 158.8L138.201 157.3L140.501 159L141.001 161.9L142.201 162.6L144.501 162.5L148.001 164.4L150.001 164.3L151.401 163.9L153.701 166.1L155.701 163.8L159.201 164.9L161.101 167.9L163.401 167.8L162.701 169.9L165.001 171L168.001 168.4L170.601 170.1L171.901 169.6L172.001 171.1L173.701 172.3L176.001 169.8L177.201 170.5L176.901 172.5L177.901 174.3L179.101 173.5L181.601 169.3L183.401 171.3L185.401 171.8L187.501 171.1L189.501 172.9L190.701 172.8L192.001 174L195.601 173.1L196.201 171.4L199.901 171.1L201.501 171.8L206.501 169.3L207.101 170.8L212.201 170.5L212.701 168.9L214.901 169.8L219.501 173.6L225.901 175.5L228.501 177.8L231.301 176.5L234.501 177.3L234.701 189.2L235.201 209.1L235.901 212.5L238.501 215.3L239.201 220.7L243.001 225.3L243.801 229.6H244.801L244.701 236.9L241.401 243.3L242.701 245.6L241.401 247.1L242.101 250.1L242.001 254.4L239.801 257.9L239.701 258.7L238.001 259.9L239.001 261.7L240.201 262.8L236.701 263.1L228.301 267L224.801 268.4L223.001 270.2L222.301 269.7L224.401 267.4L226.201 266.7L226.701 265.8L223.801 265.7L223.101 264.9L223.901 262.9L223.001 261.1H222.401L220.001 262.4L218.101 265L218.401 266.7L221.701 270.1L223.001 270.4V271.2L220.701 272.8L215.801 276.8L211.801 280.7L208.601 282.1L203.601 285.1L199.901 287.1L195.401 289L191.301 291.5L194.501 288.5V287.4L195.101 286.6L194.901 284.8L193.401 284.7L192.301 286.2L189.701 287.5L187.901 286.3L187.601 284.6H186.101L186.901 286.8L188.301 287.5L189.501 288.4L191.301 290L190.601 290.8L186.701 292.5L185.001 292.6L183.801 291.4L183.301 293.5L183.801 294.6L181.101 296.6L179.601 296.8L178.801 297.5L178.401 299.2L176.601 302.5L175.001 303.2L173.401 302.6L171.601 303.7L171.901 305.1L173.201 305.9L174.201 306.7L172.401 310.2L172.101 313L171.101 314.7L169.701 315.7L166.801 316.1L168.601 316.7L170.501 316.1L170.101 319.3L169.001 319.2L169.201 320.4L169.501 321.8L168.201 322.7V325.8L169.801 327.2L170.401 330.3L170.001 332.5L169.001 332.9L169.401 334.4L170.501 334.8L171.301 336.5V339.1L172.401 341.2L174.601 343.8L174.501 344.5L172.301 344.3L170.701 345.7L170.901 347.1L170.001 346.8L168.601 346.6L165.201 342.9L162.901 342.3H155.801L153.001 341.5L149.401 338.5L147.701 337.5L145.601 337.6L142.401 335L137.001 333.4V332.1L135.601 330.3L134.701 325.6L133.601 323.9L131.901 322.5V320.9L130.501 320.3L131.101 317.7L130.801 315.5L129.501 314.1L130.201 311.1L129.401 307.9L127.701 306.5H126.601L122.601 303L122.701 301.1L121.901 299.4L121.101 299.2L120.201 296.8L118.201 295.2L115.301 292.7L115.101 290.6L114.101 289.9L114.301 288.3L114.801 287.6L113.401 286.1L113.501 285.4L111.501 283.2L111.601 281.1L108.901 276.2L108.801 274.5L107.001 271.4L101.901 266.6V265.5L98.6008 263.8L98.5008 262L97.3008 261.6V260.9L96.5008 260.7L94.4008 257.9H93.6008L92.9008 257.3L91.6008 258.4H89.4008L86.8008 257.3H82.2008L78.0008 255.2L76.7008 257.1L74.5008 256.5L71.2008 257.7L69.5008 260.5L67.5008 263.7L66.4008 268.1L65.0008 269.3L63.9008 269.4L63.0008 271L61.7008 271.6L61.6008 273.4L58.7008 273.5L56.9008 272H55.9008L53.9008 269.1L50.3008 268.6L48.6008 266.3L47.3008 266.1L45.2008 265.3L41.8008 261.9L42.0008 261.1L40.4008 259.9L39.4008 259.8L36.0008 256.7L35.9008 254.7L33.6008 250.7L33.8008 249.1L33.1008 247.8L33.9008 246.3L33.8008 243.9L31.2008 239.8L30.6008 235.6L29.0008 234V233L27.8008 232.8L27.1008 231.7L24.7008 230L23.8008 229.9L21.9008 228.3V227.2L19.0008 225.4L18.4008 223.3L15.8008 221L12.6008 216.6L9.6008 215.3L7.50079 213.5L7.70081 212.3L6.40079 210.9L4.70081 207.2L2.30078 206.2L0.300781 204ZM175.201 342.3L176.001 342.4L175.401 337.6L171.901 325.3L171.701 317.2L176.601 306.7L182.701 298.5L189.901 293.4V292.7H189.101L186.501 293.7L182.901 296L182.201 297.5L174.001 309.1L171.201 317V325.8L174.801 337.8L175.201 342.3Z" fill="white" fill-opacity="0.5"/>
<path d="M552.699 40.4002L551.599 43.2002L552.099 44.3002L552.499 43.2002L553.299 40.1002L552.699 40.4002ZM518.099 33.4002L517.399 32.4002L518.399 32.3002L519.399 31.4002L519.799 29.6002L519.599 29.1002L519.699 28.6002L519.399 27.9002L518.799 27.4002L518.399 27.3002L517.899 26.9002L517.299 26.3002H516.299L515.699 26.2002L515.299 25.8002L515.399 25.3002L513.699 24.7002L512.899 25.0002L511.699 24.9002L510.999 24.2002L510.499 24.0002L510.299 23.3002L510.899 22.5002V21.6002L509.699 21.4002L508.699 20.5002L507.799 20.6002L506.199 20.3002L505.799 21.0002L505.399 22.6002L504.899 24.9002L494.899 19.7002L494.699 20.6002L495.599 22.2002L494.799 24.5002L494.899 27.4002L493.699 28.2002L493.199 30.3002L492.299 31.1002L490.899 32.9002L489.999 33.7002L488.999 36.2002L486.599 35.1002L484.299 43.6002L482.999 45.2002L480.199 44.7002L478.899 42.8002L476.599 42.1002L476.499 46.8002L475.099 48.5002L475.499 50.0002L473.399 52.2002L473.799 54.1002L470.099 60.4002L469.099 63.7002L470.599 64.9002L469.099 66.8002L469.199 68.2002L466.899 70.2002L466.199 69.1002L461.899 72.2002L460.399 71.2002L459.799 72.6002L460.599 73.1002L460.099 74.0002L454.599 76.4002L451.599 74.6002L450.799 76.3002L448.899 78.1002L446.599 78.2002L442.199 75.9002L442.099 74.4002L440.599 73.7002L441.399 72.5002L440.699 71.9002L435.799 78.5002L432.899 79.5002L429.899 82.5002L429.499 84.7002L427.399 86.0002L427.299 87.7002L425.899 89.1002L424.099 89.6002L423.599 91.5002L422.599 91.9002L415.699 96.1002L444.599 92.8002L444.799 91.8002L449.399 91.3002L449.099 92.0002L478.499 88.5002L517.899 81.2002L546.999 75.1002L546.399 73.9002L546.799 73.8002L547.699 74.7002L547.599 73.3002L547.299 71.4002L548.899 72.6002L549.799 74.7002V73.4002L546.399 67.9002V66.7002L545.699 65.9002L544.399 66.6002L544.899 68.0002H544.099L543.699 67.0002L543.099 67.9002L542.199 66.8002L540.099 66.7002L539.899 67.4002L541.399 69.5002L539.999 68.8002L539.499 67.8002L539.099 68.6002L538.299 68.7002L536.799 70.4002L537.099 68.8002V67.4002L535.599 66.7002L533.799 66.2002L533.599 64.5002L532.999 63.2002L532.399 64.3002L530.699 63.3002L528.699 63.6002L528.899 62.7002L530.399 62.5002L531.299 63.0002L532.999 62.2002L533.899 62.6002L534.399 63.6002V64.3002L536.299 64.7002L536.599 65.6002L537.499 66.0002L538.399 67.2002L539.799 65.6002H540.399L540.299 63.5002L538.999 64.5002L538.399 63.6002L539.899 63.4002L538.699 62.5002L537.499 63.1002L537.399 61.4002L535.699 61.6002L533.499 60.5002L531.699 58.3002L535.299 60.5002L536.199 60.8002L537.899 60.0002L536.199 59.1002L536.799 58.5002L535.799 58.0002L536.599 57.8002L536.299 56.9002L537.399 57.8002L537.799 57.0002L538.199 58.3002L539.399 59.1002L539.999 58.6002L539.499 58.0002L539.399 55.5002L538.299 55.4002L536.699 54.6002L537.599 53.5002L535.599 53.4002L535.199 52.9002L533.799 53.5002L532.399 52.7002L531.899 51.5002L529.799 50.3002L527.699 48.5002L525.499 46.6002L528.499 47.9002L529.399 49.1002L531.499 49.8002L533.799 52.3002L533.999 50.6002L534.599 51.9002L536.899 52.4002V48.4002L536.099 47.3002L537.199 47.7002L537.299 46.1002L534.199 44.7002L532.599 44.5002L531.299 44.3002L531.599 43.1002L530.099 42.8002L529.999 42.2002H528.199L527.999 43.0002L527.299 42.0002H524.599L523.599 41.6002L523.399 40.6002L522.199 40.0002L521.799 38.5002L521.199 38.1002L520.499 39.2002L519.599 39.4002L518.699 40.1002H517.199L516.299 38.8002L516.699 35.7002L517.199 33.3002L517.799 33.8002L518.099 33.4002ZM539.999 45.0002L540.899 44.9002V44.3002L540.099 44.4002L539.999 45.0002ZM547.499 59.2002L546.499 61.9002L547.699 60.6002L547.499 59.2002ZM545.699 43.9002L546.399 44.2002L546.199 46.1002L545.699 45.6002L544.399 46.6002L545.399 47.0002L543.599 51.4002L543.699 59.5002L545.599 62.6002L546.099 61.1002L546.499 58.4002L546.199 56.1002L546.899 55.2002L546.699 53.8002L547.899 53.2002L547.299 52.7002L547.799 52.0002L548.599 53.1002L548.399 54.2002L547.999 58.1002L549.099 55.9002L549.499 52.8002L549.599 49.8002L549.299 47.8002L549.899 45.5002L550.999 43.7002L551.099 41.5002L551.399 40.6002L546.799 42.2002L546.099 43.0002L545.699 43.9002Z" fill="white" fill-opacity="0.5"/>
<path d="M520.5 26.0002L517.9 24.2002L516.9 25.9002L517.4 26.3002L517.8 26.4002L518.4 26.9002L518.7 27.6002L518.6 28.1002L518.8 28.6002L520.5 26.0002Z" fill="white" fill-opacity="0.5"/>
<path d="M441.399 72.5001L440.599 73.7001L442.099 74.4001L442.199 75.9001L446.599 78.2001L448.899 78.1001L450.799 76.3001L451.599 74.6001L454.599 76.4001L460.099 74.0001L460.599 73.1001L459.799 72.6001L460.399 71.2001L461.899 72.2001L466.199 69.1001L466.899 70.2001L469.199 68.2001L469.099 66.8001L470.599 64.9001L469.099 63.7001L470.099 60.4001L473.799 54.1001L473.399 52.2001L475.499 50.0001L475.099 48.5001L476.499 46.8001L476.599 42.1001L478.899 42.8001L480.199 44.7001L482.999 45.2001L484.299 43.6001L486.599 35.1001L488.999 36.2001L489.999 33.7001L490.899 32.9001L492.299 31.1001L493.199 30.3001L493.699 28.2001L494.899 27.4001L494.799 24.5001L495.599 22.2001L494.699 20.6001L494.899 19.7001L504.899 24.9001L505.399 22.6001L505.799 21.0001L506.199 20.3001L505.299 19.9001L505.499 18.3001L504.499 17.8001L504.299 17.1001H503.599L502.799 15.9001L502.999 14.9001L500.399 15.3001L498.199 13.7001L496.799 14.0001L495.899 15.4001H494.599L492.899 18.3001L489.599 18.7001L487.699 17.7001L485.099 21.5001L482.899 21.2001L479.799 25.1001L478.899 26.7001L477.099 28.3001L475.399 16.9001L457.999 19.8001L454.799 0.100098L452.599 1.30009L453.999 3.40009L453.899 5.6001L454.499 7.6001L453.399 11.0001L453.299 16.4001L452.299 20.0001L452.799 21.1001L452.399 23.3001L451.299 23.8001L449.299 27.1001L447.499 29.1001H446.899L445.099 30.8001L443.799 29.6001L442.299 31.4001L441.999 32.6001H440.699L439.399 34.8001L439.499 36.9001L438.499 37.4001L439.899 38.5001V40.4001L438.899 40.6001L438.199 41.4001L437.199 41.9001L436.599 39.8001L434.999 39.3001L433.999 41.6001L433.699 43.8001L432.599 45.1001L433.899 48.7001L432.399 49.5001L431.999 53.0001H430.499L427.299 54.4001L427.199 55.5001L427.799 56.5001L427.199 60.1001L429.099 61.7001L429.899 62.8001L430.899 63.4001L430.799 64.3001L435.199 69.9001H436.599L438.099 71.7001L439.299 72.0001L440.699 71.9001L441.399 72.5001Z" fill="white" fill-opacity="0.5"/>
<path d="M540.2 1.6001L538.6 1.90009L537.1 3.00009L535.9 5.1001L543.5 32.2001L554.4 29.9001L552.2 22.3001L551.1 22.8001L547.8 20.2001L547.3 18.5001L545.5 17.5001L545.3 13.8001L543.2 11.6001L542.1 10.8001L540.9 9.70009L540.5 6.50009L540.8 4.40009L541.8 2.20009L540.2 1.6001Z" fill="white" fill-opacity="0.5"/>
</svg>
