<svg width="252" height="288" viewBox="0 0 252 288" fill="none" xmlns="http://www.w3.org/2000/svg">
<path d="M125.6 239.7L128.6 237.5L129.4 235.1L128.4 233.5L126.6 233.3L125.5 231.7L126.6 224.8L128.2 224.5L130.6 221.3L132.2 214.3L134.6 210.7L139.4 209L140.7 207.7L140.3 205.8L138 203.3L136.8 197.5L135.4 195.7L134.1 192.3L135 190.2L136.4 187.2L136.9 184.3L136.4 179.4L137.4 165.8L140.9 165.2L144.6 166.6L145.8 169.3H147.8L150.2 166.4L153.6 148.9L199.8 157.1L239.8 163.1L222.4 287.2L185.1 281.8L120.9 244.3L121.4 241.4L123.4 239.6L125.6 239.7Z" fill="white" fill-opacity="0.5"/>
<path d="M55.4 217.7L58.8 222.9L57.4 223L55.6 221.1L55.4 217.7ZM57.3 207.9L59.1 212L61.7 213L62.4 212.4L61.1 209.9L58.5 207.5L57.3 207.9ZM37.4 188.9V191.3L39.4 192.5L43.8 192.3L44.8 191.3L41.7 191.1L37.4 188.9ZM31.5 189L34.8 189.5L36.2 191.7H32.4L31.5 189ZM79.4 234.5L78.4 231.5L78.6 228.5L78.2 220.6L76.4 215.8L75.2 214.4L74.6 212.9L67.6 204.3L64 204.4L62 202.5L63.1 200.7L62.4 197L60.2 195.8L56.3 195.2L53.5 193.9L52 192L47.5 185.4L44.8 183.2L41.1 182.7L38 180.4L33.3 178.9L30.5 178.6L28 176.1L28.2 173.3L29 168.5L30.8 163.4L29.4 161.8L25.4 152.4L22.7 148.7L22.3 145.7L20.7 143.4L20.9 140.9L18.9 135.9L16 133.2L16.6 126.1L19 125.3L20.8 122.2L20.4 119L19.4 118.1H16.9L14.4 114.8L12.9 111.3V103.8L14.1 99.6L14.3 97.5L16.8 97.7L16.7 99.3L15.9 100V102.5L19.6 105.7V101L18.2 97.6L18.7 96.5L17.7 94.8L20.5 93.3L18.6 90.3L17.2 90.8L15.7 94.6L16.2 95.9L15.4 96.9L14.5 96.8L9.1 90.7L9.8 85.1L8.7 81.2L2.2 68.4L3 57.7L5.3 54.1L5.5 47.7L0 36.6L0.3 31.4L7.2 23.9L8.9 21.5L8.8 20.1L12.8 10.9L12.9 2.5L13.8 0L79.9 18.6L63.5 81.7L64.6 85.2L135 190.2L134.1 192.3L135.4 195.7L136.8 197.5L138 203.3L140.3 205.8L140.7 207.7L139.4 209L134.6 210.7L132.2 214.3L130.6 221.3L128.2 224.5L126.6 224.8L125.5 231.7L126.6 233.3L128.4 233.5L129.4 235.1L128.6 237.5L125.6 239.7L123.4 239.6L79.4 234.5Z" fill="white" fill-opacity="0.5"/>
<path d="M153.6 148.9L150.2 166.4L147.8 169.3H145.8L144.6 166.6L140.9 165.2L137.4 165.8L136.4 179.4L136.9 184.3L136.4 187.2L135 190.2L64.6 85.1996L63.5 81.6996L79.9 18.5996L126.9 29.7996L151.3 35.1996L174.6 39.8996L153.6 148.9Z" fill="white" fill-opacity="0.5"/>
<path d="M219.2 69.9999L222.5 48.0999L174.6 39.8999L153.6 148.9L199.8 157.1L239.8 163.1L251.3 74.7999L219.2 69.9999Z" fill="white" fill-opacity="0.5"/>
</svg>
